<?xml version="1.0" encoding="UTF-8"?>
<svg version="1.1" xmlns="http://www.w3.org/2000/svg" width="360" height="362">
<path d="M0 0 C118.8 0 237.6 0 360 0 C360 119.46 360 238.92 360 362 C241.2 362 122.4 362 0 362 C0 242.54 0 123.08 0 0 Z " fill="#1C1A69" transform="translate(0,0)"/>
<path d="M0 0 C7.26 0 14.52 0 22 0 C23.010625 2.206875 24.02125 4.41375 25.0625 6.6875 C30.41599308 18.19285819 36.17072535 28.96284085 44 39 C45.11955078 40.44439453 45.11955078 40.44439453 46.26171875 41.91796875 C49.995071 47.0174555 49.995071 47.0174555 54.73486423 51.04922676 C57.01474935 52.50895495 58.42227606 53.78403995 60 56 C61.04058292 60.88482782 60.88562687 65.75687731 60.79467773 70.72607422 C60.79270188 72.23432828 60.79381416 73.74258908 60.79777527 75.25083923 C60.79978064 79.33565746 60.75867938 83.41903166 60.70975757 87.50351477 C60.66594523 91.77555325 60.66188231 96.04762626 60.65357971 100.31985474 C60.63183826 108.40543894 60.57441643 116.49035921 60.50413328 124.57565129 C60.4258429 133.78229274 60.3873916 142.9889662 60.35226524 152.19585776 C60.27913213 171.13094801 60.15603813 190.06542059 60 209 C57.69 209 55.38 209 53 209 C53 158.84 53 108.68 53 57 C51.35 56.67 49.7 56.34 48 56 C37.70119719 51.17520269 28.82332165 44.0977622 22 35 C21.67 92.42 21.34 149.84 21 209 C14.07 209 7.14 209 0 209 C0 140.03 0 71.06 0 0 Z " fill="#DCA93C" transform="translate(114,57)"/>
<path d="M0 0 C7.26 0 14.52 0 22 0 C22 59.73 22 119.46 22 181 C15.07 181 8.14 181 1 181 C1 132.82 1 84.64 1 35 C-4.91515931 40.1716481 -4.91515931 40.1716481 -10.6875 45.5 C-15.22779247 49.49654487 -23.73923797 56 -30 56 C-30 97.25 -30 138.5 -30 181 C-32.31 181 -34.62 181 -37 181 C-37.28109624 164.77924013 -37.49230303 148.55927744 -37.62174606 132.33666611 C-37.68346395 124.80303992 -37.76750337 117.27093222 -37.90527344 109.73828125 C-38.02538567 103.16791473 -38.10241432 96.59864826 -38.12906194 90.02721429 C-38.14462668 86.55123852 -38.18083087 83.07840774 -38.26876068 79.60344696 C-38.85201655 55.6348247 -38.85201655 55.6348247 -32.85356522 49.04532242 C-30.39240044 46.81311496 -27.69974003 44.93174463 -25 43 C-13.99242251 30.40117744 -6.83316602 15.12019715 0 0 Z " fill="#C27809" transform="translate(218,85)"/>
<path d="M0 0 C1.65 1.65 3.3 3.3 5 5 C12.39698015 12.25372877 21.00394995 19.66798332 31 23 C31.04666961 42.523019 31.08196407 62.04602672 31.10362434 81.56908989 C31.11394779 90.63348121 31.12802846 99.69783792 31.15087891 108.76220703 C31.17078016 116.66043149 31.18370866 124.5586309 31.18817699 132.45687973 C31.19078992 136.64100185 31.19695347 140.82505227 31.21146011 145.00915146 C31.22499253 148.94398383 31.22923149 152.87871468 31.22621536 156.81356812 C31.22676748 158.2608101 31.23077073 159.70805533 31.23841095 161.15527725 C31.2483038 163.12513041 31.24479075 165.09503754 31.24050903 167.06491089 C31.24235262 168.16921888 31.24419621 169.27352688 31.24609566 170.41129875 C31 173 31 173 29 175 C29 150.91 29 126.82 29 102 C27.02 101.34 25.04 100.68 23 100 C21.97641895 99.02415071 20.97672339 98.022747 20 97 C18.07087537 95.94475234 16.10826543 94.94959342 14.125 94 C10.29508296 92.1570324 6.61359314 90.24016106 3 88 C2.52947647 96.58898476 2.52947647 96.58898476 4 105 C7.22123678 108.2976729 10.6783613 109.56346085 15 111 C16.21985671 111.58054838 17.43160815 112.17933122 18.625 112.8125 C19.40875 113.204375 20.1925 113.59625 21 114 C22 115 22 115 22.12025452 117.47401428 C22.1169236 119.12281837 22.1169236 119.12281837 22.11352539 120.80493164 C22.11344986 122.04614273 22.11337433 123.28735382 22.11329651 124.56617737 C22.10818911 125.9308374 22.1029731 127.29549702 22.09765625 128.66015625 C22.095792 130.04878183 22.09436813 131.43740807 22.09336853 132.82603455 C22.08954387 136.48721115 22.07971403 140.1483483 22.06866455 143.80950928 C22.05844932 147.54292263 22.05387067 151.27634234 22.04882812 155.00976562 C22.0380917 162.33986385 22.02049534 169.66992138 22 177 C14.41 177 6.82 177 -1 177 C-0.67 118.59 -0.34 60.18 0 0 Z " fill="#1A1956" transform="translate(135,91)"/>
<path d="M0 0 C0.99 0.495 0.99 0.495 2 1 C1.67 21.46 1.34 41.92 1 63 C2.32 63.33 3.64 63.66 5 64 C6.83394149 64.7002322 8.66768242 65.40099817 10.5 66.10546875 C14.72651329 67.61776804 19.03674868 68.85818732 23.33984375 70.1328125 C26 71 26 71 27 72 C27.09868104 73.64661683 27.12798833 75.29745094 27.12939453 76.94702148 C27.13412277 78.52887489 27.13412277 78.52887489 27.13894653 80.14268494 C27.13591019 81.8644973 27.13591019 81.8644973 27.1328125 83.62109375 C27.13376923 84.79132584 27.13472595 85.96155792 27.13571167 87.16725159 C27.13639375 89.64804132 27.13453752 92.12883282 27.13037109 94.60961914 C27.12502803 98.41752111 27.13031271 102.22530487 27.13671875 106.03320312 C27.13605788 108.43750026 27.13477653 110.84179732 27.1328125 113.24609375 C27.13483673 114.39194443 27.13686096 115.5377951 27.13894653 116.71836853 C27.13421829 118.30495018 27.13421829 118.30495018 27.12939453 119.92358398 C27.12859894 120.85766586 27.12780334 121.79174774 27.12698364 122.75413513 C27 125 27 125 26 127 C26.9034465 127.01030746 27.80689301 127.02061493 28.73771667 127.03123474 C37.25686999 127.12926145 45.77595485 127.23178327 54.2949934 127.33933926 C58.67458318 127.39447502 63.05417975 127.44787988 67.43383789 127.49731445 C71.66139213 127.54509611 75.88886754 127.59744354 80.11632729 127.65294075 C81.72821397 127.67330188 83.34012222 127.69202506 84.95204735 127.70907402 C87.2118444 127.73325671 89.47149426 127.76329159 91.73120117 127.79467773 C93.01693527 127.81022202 94.30266937 127.8257663 95.62736511 127.84178162 C98.54414607 127.9786148 101.16668845 128.32526917 104 129 C104 129.66 104 130.32 104 131 C97.80991653 132.08511437 91.74022265 132.17151077 85.46508789 132.20532227 C84.30451842 132.21535499 83.14394896 132.22538771 81.94821072 132.23572445 C78.20637926 132.26700643 74.46453717 132.29183809 70.72265625 132.31640625 C68.4065314 132.33481919 66.09040988 132.35365638 63.77429199 132.3729248 C55.2037341 132.44125612 46.63311238 132.50138334 38.0625 132.5625 C18.901875 132.706875 -0.25875 132.85125 -20 133 C24.22 133.33 68.44 133.66 114 134 C114.33 135.32 114.66 136.64 115 138 C88.60419745 138.1716276 62.20836355 138.33802601 35.8125 138.5 C34.84411273 138.50594854 33.87572545 138.51189708 32.87799311 138.51802588 C-62.95918214 139.10615044 -62.95918214 139.10615044 -107.0625 139.0625 C-107.9342474 139.06164398 -108.8059948 139.06078796 -109.70415878 139.05990601 C-119.46946808 139.04952091 -129.23473412 139.03144542 -139 139 C-139 137.02 -139 135.04 -139 133 C-135.37 132.67 -131.74 132.34 -128 132 C-128.33 131.01 -128.66 130.02 -129 129 C-127.16211462 127.16211462 -124.20235996 127.82694677 -121.73608398 127.79467773 C-121.08244873 127.78477814 -120.42881348 127.77487854 -119.75537109 127.76467896 C-117.58564936 127.73298366 -115.4159057 127.70827508 -113.24609375 127.68359375 C-111.74536048 127.66303113 -110.2446331 127.64203485 -108.74391174 127.62062073 C-104.78688307 127.56532845 -100.82980151 127.51595089 -96.87268066 127.46777344 C-92.8375984 127.4176105 -88.80259328 127.36189732 -84.76757812 127.30664062 C-76.84511542 127.19897157 -68.92258749 127.09805885 -61 127 C-65.29 126.67 -69.58 126.34 -74 126 C-74 125.67 -74 125.34 -74 125 C-67.07 125 -60.14 125 -53 125 C-53 125.33 -53 125.66 -53 126 C-41.21355651 126.57375748 -29.42651238 127.0999192 -17.625 127.1875 C-16.78227539 127.20039063 -15.93955078 127.21328125 -15.07128906 127.2265625 C-13.04612024 127.22993638 -11.02130979 127.12500763 -9 127 C-8.34 126.34 -7.68 125.68 -7 125 C-4.69 125 -2.38 125 0 125 C0 83.75 0 42.5 0 0 Z " fill="#7E623F" transform="translate(188,141)"/>
<path d="M0 0 C0.33 48.18 0.66 96.36 1 146 C7.93 146 14.86 146 22 146 C22.33 133.46 22.66 120.92 23 108 C26.63 108 30.26 108 34 108 C34 120.87 34 133.74 34 147 C40.82120411 146.92091458 40.82120411 146.92091458 47.64208984 146.81982422 C48.91366943 146.81233154 48.91366943 146.81233154 50.2109375 146.8046875 C51.51490479 146.78897705 51.51490479 146.78897705 52.84521484 146.77294922 C55 147 55 147 57 149 C36.21 149 15.42 149 -6 149 C-5.67 148.01 -5.34 147.02 -5 146 C-4.9121494 144.26654193 -4.88235186 142.52986731 -4.88647461 140.79418945 C-4.88658791 139.20287956 -4.88658791 139.20287956 -4.88670349 137.579422 C-4.89186478 136.43559555 -4.89702606 135.2917691 -4.90234375 134.11328125 C-4.9037587 132.94113571 -4.90517365 131.76899017 -4.90663147 130.56132507 C-4.91223612 126.81169093 -4.92478944 123.06211615 -4.9375 119.3125 C-4.9425144 116.77278732 -4.94707741 114.2330737 -4.95117188 111.69335938 C-4.96220706 105.46221927 -4.97894975 99.23111388 -5 93 C-6.134375 92.68546875 -7.26875 92.3709375 -8.4375 92.046875 C-9.95845166 91.61499984 -11.47927839 91.18268452 -13 90.75 C-13.74378906 90.54503906 -14.48757812 90.34007812 -15.25390625 90.12890625 C-20.52821479 88.61540902 -25.1538637 86.5772634 -30 84 C-30.06948318 75.96804958 -30.12280239 67.93622455 -30.15543652 59.90404797 C-30.17109859 56.17444945 -30.19234629 52.44505642 -30.22631836 48.71557617 C-30.25889319 45.11700226 -30.27684894 41.51862611 -30.28463173 37.91991615 C-30.29017868 36.54635822 -30.30101052 35.17281122 -30.31719017 33.79933739 C-30.33893676 31.87699293 -30.34022517 29.95444985 -30.34057617 28.03198242 C-30.34723801 26.93722092 -30.35389984 25.84245941 -30.36076355 24.71452332 C-30 22 -30 22 -28.63911438 20.21723938 C-26.35846512 18.52358327 -23.93677534 17.22402215 -21.4375 15.875 C-14.52595434 11.93273488 -8.77672286 7.03564712 -3.34765625 1.234375 C-2 0 -2 0 0 0 Z " fill="#211F74" transform="translate(219,120)"/>
<path d="M0 0 C7.59 0 15.18 0 23 0 C30.35368068 8.82441682 32.6489927 12.71199372 32.25 23.9375 C32.23195312 24.90751953 32.21390625 25.87753906 32.1953125 26.87695312 C32.14850667 29.25234894 32.08296385 31.62563844 32 34 C31.52949219 33.59007812 31.05898437 33.18015625 30.57421875 32.7578125 C29.64029297 31.94957031 29.64029297 31.94957031 28.6875 31.125 C28.07261719 30.59132812 27.45773438 30.05765625 26.82421875 29.5078125 C24.86501788 27.8359553 24.86501788 27.8359553 22 26 C22 58.67 22 91.34 22 125 C14.74 125 7.48 125 0 125 C0 83.75 0 42.5 0 0 Z " fill="#C88212" transform="translate(78,141)"/>
<path d="M0 0 C0.495 1.155 0.99 2.31 1.5 3.5 C8.03859009 18.11973489 15.3114669 31.58331195 25.625 43.9375 C26.0681958 44.46947998 26.5113916 45.00145996 26.96801758 45.54956055 C29.23737317 48.19553439 31.07026573 50.03974337 34.12686157 51.76860046 C36.48898409 53.74181317 36.96680112 54.82300558 37.54285812 57.89415932 C37.74174427 61.80754794 37.7424192 65.69698678 37.68115234 69.61254883 C37.67945924 71.12065564 37.68041119 72.6287674 37.68380737 74.13687134 C37.68552808 78.22572212 37.65026723 82.31351565 37.60836363 86.40212083 C37.57084148 90.67685467 37.56733012 94.95161309 37.56021118 99.22648621 C37.54156661 107.31910185 37.49233513 115.41123085 37.43211424 123.50363225 C37.36503679 132.71753065 37.33205705 141.93145236 37.30194163 151.14553416 C37.23923551 170.09729862 37.1337083 189.04861018 37 208 C34.69 208 32.38 208 30 208 C30 157.84 30 107.68 30 56 C28.35 55.67 26.7 55.34 25 55 C13.83783106 49.77073174 5.60994015 41.60994015 -3 33 C-3 90.42 -3 147.84 -3 207 C-6.96 207 -10.92 207 -15 207 C-13.68 206.67 -12.36 206.34 -11 206 C-11 205.34 -11 204.68 -11 204 C-10.34 204 -9.68 204 -9 204 C-9 203.34 -9 202.68 -9 202 C-8.34 202 -7.68 202 -7 202 C-6.24912387 198.64933346 -5.87392051 195.55272016 -5.87060547 192.12133789 C-5.86745331 191.1800856 -5.86430115 190.23883331 -5.86105347 189.26905823 C-5.8630777 188.26374557 -5.86510193 187.25843292 -5.8671875 186.22265625 C-5.86623077 185.17855087 -5.86527405 184.1344455 -5.86428833 183.05870056 C-5.86360885 180.85399312 -5.86544693 178.64928366 -5.86962891 176.44458008 C-5.874975 173.07824179 -5.86967879 169.71203725 -5.86328125 166.34570312 C-5.86394218 164.20052054 -5.86522364 162.05533804 -5.8671875 159.91015625 C-5.86415115 158.40522362 -5.86415115 158.40522362 -5.86105347 156.86988831 C-5.87692591 152.11441663 -6.11733073 147.6885424 -7 143 C-6.5625 140.625 -6.5625 140.625 -6 139 C-6.66 138.67 -7.32 138.34 -8 138 C-8.04716297 132.01828422 -8.07343449 126.03659543 -8.06640625 120.0546875 C-8.06584229 119.04390137 -8.06527832 118.03311523 -8.06469727 116.99169922 C-7.97915631 113.03615642 -7.63156098 109.12848379 -7.21875 105.1953125 C-6.91173675 100.71072608 -6.96872272 96.243372 -7 91.75 C-7.06363659 82.55053616 -6.80118963 73.39648362 -6.35546875 64.20800781 C-6.08016473 58.46398614 -5.86044394 52.75087249 -6 47 C-6.33 46.67 -6.66 46.34 -7 46 C-6.9140625 44.14453125 -6.9140625 44.14453125 -6.625 41.8125 C-6.52574219 41.00554687 -6.42648438 40.19859375 -6.32421875 39.3671875 C-5.94070761 36.56709409 -5.49929199 33.78176966 -5 31 C-5.66 30.67 -6.32 30.34 -7 30 C-7.95087127 24.89987228 -7.92993797 21.11465886 -7 16 C-7.29044914 14.65667272 -7.60955794 13.31774196 -8 12 C-7.67 11.67 -7.34 11.34 -7 11 C-6.95936168 9.33382885 -6.957279 7.66611905 -7 6 C-7.66 6 -8.32 6 -9 6 C-8.625 3.5625 -8.625 3.5625 -8 1 C-5.29120665 -0.35439668 -2.99066732 -0.06501451 0 0 Z M-10 139 C-9.01 139.495 -9.01 139.495 -8 140 C-8.99 140.495 -8.99 140.495 -10 141 C-10 140.34 -10 139.68 -10 139 Z " fill="#D0CD8D" transform="translate(137,58)"/>
<path d="M0 0 C2.64 0 5.28 0 8 0 C8.3125 2.3125 8.3125 2.3125 8 5 C5.5 6.8125 5.5 6.8125 3 8 C3.391875 8.721875 3.78375 9.44375 4.1875 10.1875 C4.455625 11.115625 4.72375 12.04375 5 13 C4.04504326 14.69287785 3.0409066 16.35857037 2 18 C1.83300768 21.12521833 1.83300768 21.12521833 2 24 C1.67 24.66 1.34 25.32 1 26 C0.960008 27.99960012 0.95653201 30.00047242 1 32 C1.66 32 2.32 32 3 32 C5.10682305 45.5563745 5.30887029 58.98159926 5.26074219 72.68237305 C5.25005006 76.29558207 5.26067783 79.90829065 5.2734375 83.52148438 C5.2804255 97.13865448 4.70310794 110.48667256 3 124 C3.99 124.495 3.99 124.495 5 125 C4.67 125.33 4.34 125.66 4 126 C3.90688111 127.50418739 3.88253972 129.01271356 3.88647461 130.51977539 C3.88655014 131.48069595 3.88662567 132.44161652 3.88670349 133.43165588 C3.89186478 134.476436 3.89702606 135.52121613 3.90234375 136.59765625 C3.90446617 138.19364906 3.90446617 138.19364906 3.90663147 139.82188416 C3.91224936 143.23545083 3.92480489 146.648953 3.9375 150.0625 C3.94251269 152.37044176 3.947076 154.67838455 3.95117188 156.98632812 C3.9622246 162.65757426 3.97898013 168.32878253 4 174 C4.66 174.33 5.32 174.66 6 175 C5.34 175.99 4.68 176.98 4 178 C5.98 178 7.96 178 10 178 C10 178.33 10 178.66 10 179 C7.36 179 4.72 179 2 179 C2 130.82 2 82.64 2 33 C1.01 33 0.02 33 -1 33 C-1.26167969 33.58265625 -1.52335937 34.1653125 -1.79296875 34.765625 C-7.2673267 44.89938793 -19.51264333 51.50421444 -30 55 C-30 96.25 -30 137.5 -30 180 C-32.31 180 -34.62 180 -37 180 C-37.28109624 163.77924013 -37.49230303 147.55927744 -37.62174606 131.33666611 C-37.68346395 123.80303992 -37.76750337 116.27093222 -37.90527344 108.73828125 C-38.02538567 102.16791473 -38.10241432 95.59864826 -38.12906194 89.02721429 C-38.14462668 85.55123852 -38.18083087 82.07840774 -38.26876068 78.60344696 C-38.85201655 54.6348247 -38.85201655 54.6348247 -32.85356522 48.04532242 C-30.39240044 45.81311496 -27.69974003 43.93174463 -25 42 C-14.24709168 29.69165065 -7.09500391 14.60065113 0 0 Z " fill="#CC8614" transform="translate(218,86)"/>
<path d="M0 0 C0.33 0 0.66 0 1 0 C1 69.3 1 138.6 1 210 C5.29 210 9.58 210 14 210 C14.99 210.99 14.99 210.99 16 212 C-1.16 212 -18.32 212 -36 212 C-36 169.43 -36 126.86 -36 83 C-27.75 83 -19.5 83 -11 83 C-11.33 83.66 -11.66 84.32 -12 85 C-23.385 84.505 -23.385 84.505 -35 84 C-35 125.25 -35 166.5 -35 209 C-27.74 209 -20.48 209 -13 209 C-13 176.33 -13 143.66 -13 110 C-9.09567131 111.95216435 -6.96160056 113.87386607 -4 117 C-4 116.40985107 -4 115.81970215 -4 115.21166992 C-4 108.14111328 -4 101.07055664 -4 94 C-3.01 94.99 -2.02 95.98 -1 97 C-0.67 64.99 -0.34 32.98 0 0 Z " fill="#171339" transform="translate(113,57)"/>
<path d="M0 0 C0.66 0.33 1.32 0.66 2 1 C1.67 21.46 1.34 41.92 1 63 C2.32 63.33 3.64 63.66 5 64 C6.83394149 64.7002322 8.66768242 65.40099817 10.5 66.10546875 C14.72651329 67.61776804 19.03674868 68.85818732 23.33984375 70.1328125 C26 71 26 71 27 72 C27.10389501 73.64114518 27.13852565 75.28673565 27.14526367 76.93115234 C27.15164352 77.98249359 27.15802338 79.03383484 27.16459656 80.11703491 C27.16570938 81.26177277 27.1668222 82.40651062 27.16796875 83.5859375 C27.17296135 85.33772812 27.17296135 85.33772812 27.17805481 87.12490845 C27.18312949 89.60149744 27.18546297 92.07809331 27.18530273 94.5546875 C27.18748659 98.35167689 27.20562962 102.14837469 27.22460938 105.9453125 C27.22754365 108.34635317 27.22952822 110.74739522 27.23046875 113.1484375 C27.23765427 114.28912689 27.24483978 115.42981628 27.25224304 116.60507202 C27.24916641 117.66271759 27.24608978 118.72036316 27.24291992 119.81005859 C27.24434494 120.74191986 27.24576996 121.67378113 27.24723816 122.63388062 C27 125 27 125 25 128 C22.37537756 128.26697888 19.98934067 128.34832984 17.3671875 128.29296875 C16.23943405 128.28660149 16.23943405 128.28660149 15.08889771 128.28010559 C12.68390315 128.2632917 10.27974191 128.22563624 7.875 128.1875 C6.24610584 128.17245659 4.61719856 128.15876758 2.98828125 128.14648438 C-1.00813434 128.11337954 -5.00392582 128.06158009 -9 128 C-8.34 127.01 -7.68 126.02 -7 125 C-4.69 125 -2.38 125 0 125 C0 83.75 0 42.5 0 0 Z " fill="#24216D" transform="translate(188,141)"/>
<path d="M0 0 C5.77209816 0.37687239 11.45977417 0.79117793 17.125 2 C22.81551257 3.25404711 22.81551257 3.25404711 32 4 C32 18.52 32 33.04 32 48 C24.74 48 17.48 48 10 48 C10 35.13 10 22.26 10 9 C7.03 9 4.06 9 1 9 C0 8 0 8 -0.09765625 6.15234375 C-0.06510417 4.1015625 -0.03255208 2.05078125 0 0 Z " fill="#E9A210" transform="translate(243,219)"/>
<path d="M0 0 C2.32552408 5.73075577 3.26661512 10.52816518 3.02734375 16.7109375 C2.91573036 19.19023206 2.91573036 19.19023206 3.6875 22.3125 C4.09348742 25.80399185 2.96126998 27.17577123 1 30 C1 30.66 1 31.32 1 32 C1.99 32.33 2.98 32.66 4 33 C3.01 33.495 3.01 33.495 2 34 C1.34 33.67 0.68 33.34 0 33 C0 90.42 0 147.84 0 207 C-3.96 207 -7.92 207 -12 207 C-10.68 206.67 -9.36 206.34 -8 206 C-8 205.34 -8 204.68 -8 204 C-7.34 204 -6.68 204 -6 204 C-6 203.34 -6 202.68 -6 202 C-5.34 202 -4.68 202 -4 202 C-3.24912387 198.64933346 -2.87392051 195.55272016 -2.87060547 192.12133789 C-2.86745331 191.1800856 -2.86430115 190.23883331 -2.86105347 189.26905823 C-2.8630777 188.26374557 -2.86510193 187.25843292 -2.8671875 186.22265625 C-2.86623077 185.17855087 -2.86527405 184.1344455 -2.86428833 183.05870056 C-2.86360885 180.85399312 -2.86544693 178.64928366 -2.86962891 176.44458008 C-2.874975 173.07824179 -2.86967879 169.71203725 -2.86328125 166.34570312 C-2.86394218 164.20052054 -2.86522364 162.05533804 -2.8671875 159.91015625 C-2.86415115 158.40522362 -2.86415115 158.40522362 -2.86105347 156.86988831 C-2.87692591 152.11441663 -3.11733073 147.6885424 -4 143 C-3.5625 140.625 -3.5625 140.625 -3 139 C-3.66 138.67 -4.32 138.34 -5 138 C-5.04716297 132.01828422 -5.07343449 126.03659543 -5.06640625 120.0546875 C-5.06584229 119.04390137 -5.06527832 118.03311523 -5.06469727 116.99169922 C-4.97915631 113.03615642 -4.63156098 109.12848379 -4.21875 105.1953125 C-3.91173675 100.71072608 -3.96872272 96.243372 -4 91.75 C-4.06363659 82.55053616 -3.80118963 73.39648362 -3.35546875 64.20800781 C-3.08016473 58.46398614 -2.86044394 52.75087249 -3 47 C-3.33 46.67 -3.66 46.34 -4 46 C-3.9140625 44.14453125 -3.9140625 44.14453125 -3.625 41.8125 C-3.52574219 41.00554687 -3.42648438 40.19859375 -3.32421875 39.3671875 C-2.94070761 36.56709409 -2.49929199 33.78176966 -2 31 C-2.66 30.67 -3.32 30.34 -4 30 C-4.95087127 24.89987228 -4.92993797 21.11465886 -4 16 C-4.29044914 14.65667272 -4.60955794 13.31774196 -5 12 C-4.67 11.67 -4.34 11.34 -4 11 C-3.95936168 9.33382885 -3.957279 7.66611905 -4 6 C-4.66 6 -5.32 6 -6 6 C-5.625 3.5625 -5.625 3.5625 -5 1 C-3 0 -3 0 0 0 Z M-7 139 C-6.01 139.495 -6.01 139.495 -5 140 C-5.99 140.495 -5.99 140.495 -7 141 C-7 140.34 -7 139.68 -7 139 Z " fill="#F4D365" transform="translate(134,58)"/>
<path d="M0 0 C3.96147795 1.49475841 7.64364037 3.31387388 11.375 5.3125 C12.99535156 6.17294922 12.99535156 6.17294922 14.6484375 7.05078125 C16.30746094 8.01564453 16.30746094 8.01564453 18 9 C19.21002686 9.52577637 20.42005371 10.05155273 21.66674805 10.59326172 C24.49402715 12.65866543 24.95825108 13.77694361 25.61260986 17.27305603 C25.81361541 21.68441353 25.78710926 26.04457918 25.68359375 30.45703125 C25.67053086 32.08654146 25.66056995 33.71607925 25.65357971 35.34562683 C25.6269074 39.62564581 25.55819528 43.90399031 25.48065186 48.18334961 C25.40892287 52.55364326 25.37704779 56.9242087 25.34179688 61.29492188 C25.26682071 69.86404799 25.1474202 78.43181545 25 87 C23.02 87 21.04 87 19 87 C18.67 67.2 18.34 47.4 18 27 C16.02 26.01 14.04 25.02 12 24 C10.05718489 22.96828049 8.11947334 21.92688152 6.1875 20.875 C5.23230469 20.35679687 4.27710938 19.83859375 3.29296875 19.3046875 C1 18 1 18 0 17 C-0.07325168 14.13732433 -0.09238205 11.299281 -0.0625 8.4375 C-0.05798828 7.63119141 -0.05347656 6.82488281 -0.04882812 5.99414062 C-0.03700518 3.99606244 -0.01906914 1.99802217 0 0 Z " fill="#E6E4A0" transform="translate(138,179)"/>
<path d="M0 0 C0 42.57 0 85.14 0 129 C-1.98 129 -3.96 129 -6 129 C-6.11673072 112.62351241 -6.20493752 96.24715947 -6.25906086 79.87035656 C-6.28485774 72.26653842 -6.32003608 64.66297855 -6.37719727 57.05932617 C-6.42698745 50.43302168 -6.45928023 43.80690419 -6.47044247 37.18041784 C-6.47696888 33.67066859 -6.49233703 30.16145442 -6.52865028 26.65187645 C-6.56883162 22.73680871 -6.56995224 18.82226747 -6.56762695 14.90698242 C-6.58560333 13.7395752 -6.60357971 12.57216797 -6.62210083 11.36938477 C-6.61522751 10.30507736 -6.60835419 9.24076996 -6.60127258 8.14421082 C-6.60588155 7.21780887 -6.61049051 6.29140692 -6.61523914 5.33693218 C-6 3 -6 3 -3.52492046 1.17848682 C-1 0 -1 0 0 0 Z " fill="#EDD258" transform="translate(187,137)"/>
<path d="M0 0 C4.7311244 0.00633723 9.46224974 0.00684541 14.19337773 0.00802541 C23.11389994 0.01110862 32.03440959 0.01928057 40.95492631 0.0293749 C51.12696938 0.04063062 61.29901311 0.0460701 71.47106087 0.05107033 C92.36006907 0.06146641 113.24906605 0.07900628 134.13806462 0.10139394 C134.46806462 1.42139394 134.79806462 2.74139394 135.13806462 4.10139394 C111.04211504 4.12476711 86.94616716 4.14239483 62.85020852 4.15320611 C51.66173287 4.15835967 40.47326427 4.16538448 29.28479314 4.17683339 C19.53152562 4.18680892 9.77826321 4.19325421 0.02499074 4.19548243 C-5.13798701 4.19678466 -10.30095015 4.19983966 -15.46392322 4.20712399 C-20.32705348 4.21392946 -25.19016318 4.21600169 -30.05329776 4.21450162 C-31.83461947 4.21477591 -33.61594189 4.21675411 -35.39725947 4.22059941 C-51.97957566 4.25462874 -51.97957566 4.25462874 -59.86193538 3.10139394 C-59.86193538 2.44139394 -59.86193538 1.78139394 -59.86193538 1.10139394 C-39.91002157 -0.07972213 -19.97763836 -0.03136737 0 0 Z " fill="#A16E28" transform="translate(167.86193537712097,274.8986060619354)"/>
<path d="M0 0 C0.86825912 0.00222061 1.73651825 0.00444122 2.63108826 0.00672913 C3.61202957 0.00680466 4.59297089 0.00688019 5.6036377 0.00695801 C6.6702916 0.01211929 7.7369455 0.01728058 8.83592224 0.02259827 C10.46520912 0.02472069 10.46520912 0.02472069 12.12741089 0.02688599 C15.61230674 0.03250403 19.09713941 0.04505959 22.58201599 0.05775452 C24.93813486 0.06276719 27.29425473 0.0673305 29.65037537 0.07142639 C35.44011063 0.08247933 41.2298088 0.09923501 47.01951599 0.12025452 C47.01951599 0.45025452 47.01951599 0.78025452 47.01951599 1.12025452 C31.17951599 1.12025452 15.33951599 1.12025452 -0.98048401 1.12025452 C-0.98048401 1.78025452 -0.98048401 2.44025452 -0.98048401 3.12025452 C-0.1856813 3.11803391 0.6091214 3.11581329 1.42800903 3.11352539 C11.52100284 3.08663133 21.61399244 3.06848221 31.70701599 3.05775452 C32.50675087 3.0568985 33.30648575 3.05604248 34.13045502 3.05516052 C58.10729205 3.03246629 82.05803947 3.15790511 106.01951599 4.12025452 C106.01951599 4.45025452 106.01951599 4.78025452 106.01951599 5.12025452 C93.80951599 5.45025452 81.59951599 5.78025452 69.01951599 6.12025452 C69.01951599 6.45025452 69.01951599 6.78025452 69.01951599 7.12025452 C61.42951599 7.12025452 53.83951599 7.12025452 46.01951599 7.12025452 C46.01951599 7.78025452 46.01951599 8.44025452 46.01951599 9.12025452 C58.88951599 9.61525452 58.88951599 9.61525452 72.01951599 10.12025452 C72.01951599 10.45025452 72.01951599 10.78025452 72.01951599 11.12025452 C43.96951599 11.12025452 15.91951599 11.12025452 -12.98048401 11.12025452 C-12.98048401 9.14025452 -12.98048401 7.16025452 -12.98048401 5.12025452 C-7.53548401 4.62525452 -7.53548401 4.62525452 -1.98048401 4.12025452 C-2.31048401 3.13025452 -2.64048401 2.14025452 -2.98048401 1.12025452 C-1.98048401 0.12025452 -1.98048401 0.12025452 0 0 Z " fill="#37292C" transform="translate(61.98048400878906,268.87974548339844)"/>
<path d="M0 0 C0.99 0 1.98 0 3 0 C3.495 1.155 3.99 2.31 4.5 3.5 C11.39956306 18.92683994 18.99563589 33.16062649 30.58325195 45.63745117 C31.97265625 47.1875 31.97265625 47.1875 34 50 C33.80859375 52.375 33.80859375 52.375 33 54 C26.65057072 54.987689 23.05937232 52.6776009 17.859375 49.13671875 C5.40619593 39.83085952 5.40619593 39.83085952 3 33 C1.47992158 31.22722741 1.47992158 31.22722741 0 30 C0.50015625 29.29617187 1.0003125 28.59234375 1.515625 27.8671875 C3.25884669 24.50001718 3.19481066 22.84787182 2.75 19.125 C2.63140625 18.073125 2.5128125 17.02125 2.390625 15.9375 C2.26171875 14.968125 2.1328125 13.99875 2 13 C1.835 11.72125 1.67 10.4425 1.5 9.125 C1.01295942 6.08099637 0.51881232 3.03875786 0 0 Z " fill="#E4E495" transform="translate(134,58)"/>
<path d="M0 0 C8.98827731 1.49804622 16.44619488 4.57847795 25 8 C25 25.49 25 42.98 25 61 C23.02 61 21.04 61 19 61 C18.67 46.48 18.34 31.96 18 17 C14.7 16.34 11.4 15.68 8 15 C5.32914123 14.35033165 2.66076897 13.68982899 0 13 C0 8.71 0 4.42 0 0 Z " fill="#C38816" transform="translate(190,205)"/>
<path d="M0 0 C3.63 0 7.26 0 11 0 C11 12.87 11 25.74 11 39 C17.82120411 38.92091458 17.82120411 38.92091458 24.64208984 38.81982422 C25.48980957 38.8148291 26.3375293 38.80983398 27.2109375 38.8046875 C28.08024902 38.79421387 28.94956055 38.78374023 29.84521484 38.77294922 C32 39 32 39 34 41 C13.21 41 -7.58 41 -29 41 C-29 40.67 -29 40.34 -29 40 C-23.02892223 39.01448231 -17.10439382 38.68969733 -11.0625 38.4375 C-7.741875 38.293125 -4.42125 38.14875 -1 38 C-0.67 25.46 -0.34 12.92 0 0 Z " fill="#272589" transform="translate(242,228)"/>
<path d="M0 0 C0.33 0 0.66 0 1 0 C1 43.56 1 87.12 1 132 C-0.65 132 -2.3 132 -4 132 C-4 98.34 -4 64.68 -4 30 C-3.34 30 -2.68 30 -2 30 C-0.92044788 26.76134365 -0.79558259 24.20844162 -0.68359375 20.80078125 C-0.64169922 19.59228516 -0.59980469 18.38378906 -0.55664062 17.13867188 C-0.49766602 15.2447168 -0.49766602 15.2447168 -0.4375 13.3125 C-0.39431641 12.03826172 -0.35113281 10.76402344 -0.30664062 9.45117188 C-0.2004514 6.30089148 -0.09840467 3.15053161 0 0 Z " fill="#F5F58C" transform="translate(172,133)"/>
<path d="M0 0 C3.81248426 -0.02887236 7.6249407 -0.04675492 11.4375 -0.0625 C12.52611328 -0.07087891 13.61472656 -0.07925781 14.73632812 -0.08789062 C15.77080078 -0.09111328 16.80527344 -0.09433594 17.87109375 -0.09765625 C18.82943115 -0.10289307 19.78776855 -0.10812988 20.77514648 -0.11352539 C23 0 23 0 24 1 C24.09624593 2.72092653 24.12187598 4.44583382 24.12025452 6.16944885 C24.12162918 7.28990601 24.12300385 8.41036316 24.12442017 9.56477356 C24.12082489 10.80482651 24.11722961 12.04487946 24.11352539 13.32250977 C24.11367142 14.61988068 24.11381744 15.91725159 24.1139679 17.25393677 C24.11425586 20.82195929 24.10835932 24.38994848 24.10139394 27.95796323 C24.09516021 31.6829062 24.09455659 35.40784986 24.09336853 39.13279724 C24.09025527 46.19117363 24.08204195 53.2495346 24.07201904 60.30790418 C24.06085774 68.34162971 24.05534741 76.37535596 24.05032361 84.4090873 C24.03985934 100.93940057 24.02226 117.46969832 24 134 C25.98 134 27.96 134 30 134 C30 134.33 30 134.66 30 135 C28.35 135 26.7 135 25 135 C25.33 137.97 25.66 140.94 26 144 C25.34 144 24.68 144 24 144 C24.00785522 145.71884399 24.00785522 145.71884399 24.01586914 147.47241211 C24.03391717 151.70840682 24.04543128 155.94439812 24.05493164 160.18041992 C24.05997231 162.01668875 24.06680477 163.85295354 24.07543945 165.68920898 C24.08751672 168.32276401 24.09323081 170.95626616 24.09765625 173.58984375 C24.10281754 174.41588608 24.10797882 175.24192841 24.11329651 176.09300232 C24.11349205 178.06236368 24.06204152 180.03161614 24 182 C23 183 23 183 20.95874023 183.11352539 C20.08419189 183.10828857 19.20964355 183.10305176 18.30859375 183.09765625 C17.36435547 183.09443359 16.42011719 183.09121094 15.44726562 183.08789062 C14.45404297 183.07951172 13.46082031 183.07113281 12.4375 183.0625 C11.44041016 183.05798828 10.44332031 183.05347656 9.41601562 183.04882812 C6.94395151 183.03700007 4.47200482 183.02051849 2 183 C2 182.67 2 182.34 2 182 C8.6 182 15.2 182 22 182 C22 122.27 22 62.54 22 1 C14.74 1 7.48 1 0 1 C0 0.67 0 0.34 0 0 Z " fill="#573C55" transform="translate(218,84)"/>
<path d="M0 0 C3.99208837 1.50167943 7.68503147 3.35070013 11.4375 5.375 C12.52933594 5.96023437 13.62117187 6.54546875 14.74609375 7.1484375 C16.35677734 8.06496094 16.35677734 8.06496094 18 9 C19.11117187 9.63035156 20.22234375 10.26070312 21.3671875 10.91015625 C24 13 24 13 24.76171875 15.47265625 C24.5636235 22.385138 24.5636235 22.385138 21.9375 25.25 C15.02233102 27.01557506 9.12487485 22.60909239 3.2578125 19.33984375 C1 18 1 18 0 17 C-0.07325168 14.13732433 -0.09238205 11.299281 -0.0625 8.4375 C-0.05798828 7.63119141 -0.05347656 6.82488281 -0.04882812 5.99414062 C-0.03700518 3.99606244 -0.01906914 1.99802217 0 0 Z " fill="#EBEE96" transform="translate(138,179)"/>
<path d="M0 0 C3.58378549 -0.08090486 7.16574647 -0.14045667 10.75 -0.1875 C11.76578125 -0.21263672 12.7815625 -0.23777344 13.828125 -0.26367188 C14.8078125 -0.27333984 15.7875 -0.28300781 16.796875 -0.29296875 C17.69760742 -0.3086792 18.59833984 -0.32438965 19.52636719 -0.34057617 C22.53377196 0.07349111 23.87440972 0.84727582 26 3 C26.47127407 7.17414181 26.27658312 9.97877002 25.1875 14 C22.52152689 16.43746113 21.59856368 16.32404807 18.0625 16.375 C16.03989277 16.28306331 14.01870228 16.15567107 12 16 C10.88109375 15.92007812 9.7621875 15.84015625 8.609375 15.7578125 C5.7372557 15.53321549 2.86821206 15.26994937 0 15 C0 10.05 0 5.1 0 0 Z " fill="#2C2A93" transform="translate(248,288)"/>
<path d="M0 0 C0.33 0.99 0.66 1.98 1 3 C1.99 3 2.98 3 4 3 C4 5.31 4 7.62 4 10 C4.66 10 5.32 10 6 10 C4.67763993 13.9670802 2.23468621 15.02880831 -1.1875 17.0625 C-1.75275391 17.41376953 -2.31800781 17.76503906 -2.90039062 18.12695312 C-6.62366116 20.383093 -9.76845083 21.58948361 -14 23 C-14 64.25 -14 105.5 -14 148 C-14.33 148 -14.66 148 -15 148 C-15.33 105.76 -15.66 63.52 -16 20 C-17.98 20.99 -17.98 20.99 -20 22 C-13.60869393 14.43134808 -7.06429228 6.95035208 0 0 Z " fill="#B08E41" transform="translate(202,118)"/>
<path d="M0 0 C1.98 0 3.96 0 6 0 C6 1.32 6 2.64 6 4 C9.3 4.33 12.6 4.66 16 5 C16.33 6.65 16.66 8.3 17 10 C16.01 8.515 16.01 8.515 15 7 C11.92638047 6.53381125 11.92638047 6.53381125 8.22970581 6.60127258 C7.52562595 6.59462576 6.8215461 6.58797893 6.09613049 6.58113068 C3.72523768 6.56240483 1.35484528 6.56511229 -1.01611328 6.56762695 C-2.71097533 6.55861561 -4.40583082 6.54828994 -6.10067749 6.53674316 C-10.71199925 6.5090732 -15.32319771 6.49987515 -19.93459177 6.49388909 C-24.74997285 6.48453133 -29.56526086 6.45833016 -34.38058472 6.43388367 C-43.50365291 6.39014324 -52.62670313 6.36164268 -61.74984443 6.33856028 C-72.13426892 6.31154895 -82.51860014 6.26763502 -92.90295815 6.22227156 C-114.26858866 6.1293173 -135.63424709 6.05768603 -157 6 C-157 5.67 -157 5.34 -157 5 C-125.01914056 3.92558335 -93.0310672 3.70488254 -61.03560615 3.48259127 C-53.81363463 3.43226843 -46.59169663 3.37771505 -39.36975789 3.32291877 C-24.57987021 3.21078995 -9.7899499 3.10362016 5 3 C5 2.34 5 1.68 5 1 C3.35 1 1.7 1 0 1 C0 0.67 0 0.34 0 0 Z " fill="#40356C" transform="translate(287,269)"/>
<path d="M0 0 C3.4117922 0.00010296 6.82338254 -0.01374282 10.2351265 -0.03077221 C13.55600491 -0.0446336 16.87684704 -0.04398074 20.19775391 -0.04516602 C21.40312805 -0.05235153 22.6085022 -0.05953705 23.85040283 -0.06694031 C31.05067092 -0.04761332 37.77573278 0.61912798 44.80712891 2.18530273 C44.80712891 2.51530273 44.80712891 2.84530273 44.80712891 3.18530273 C33.64833722 3.94588303 22.55503149 4.33634779 11.36962891 4.31811523 C9.86848942 4.31879195 8.36735005 4.319765 6.86621094 4.3210144 C3.75715059 4.32247051 0.6481194 4.32040284 -2.4609375 4.31567383 C-6.42233053 4.30993758 -10.38365634 4.31329329 -14.345047 4.31924629 C-17.43016052 4.32287487 -20.5152583 4.32170347 -23.60037231 4.3191185 C-25.06104541 4.31845765 -26.52172 4.31924776 -27.98239136 4.32159805 C-35.450824 4.33099675 -42.7832911 4.21475183 -50.19287109 3.18530273 C-50.19287109 2.52530273 -50.19287109 1.86530273 -50.19287109 1.18530273 C-33.46014602 0.28259985 -16.75527408 -0.00277431 0 0 Z " fill="#D9C86E" transform="translate(158.19287109375,274.814697265625)"/>
<path d="M0 0 C0.33 0 0.66 0 1 0 C2.09831218 80.77229687 2.09831218 80.77229687 2.125 118.6875 C2.12749756 119.94551422 2.12999512 121.20352844 2.13256836 122.49966431 C2.13832826 125.98287904 2.1370629 129.46600363 2.1328125 132.94921875 C2.13479645 133.96801117 2.1367804 134.98680359 2.13882446 136.03646851 C2.13571259 136.94957794 2.13260071 137.86268738 2.12939453 138.8034668 C2.12820114 139.99228706 2.12820114 139.99228706 2.12698364 141.2051239 C2 143 2 143 1 144 C-0.68608966 144.07205511 -2.37500659 144.08386068 -4.0625 144.0625 C-4.98160156 144.05347656 -5.90070313 144.04445313 -6.84765625 144.03515625 C-7.91306641 144.01775391 -7.91306641 144.01775391 -9 144 C-7.68 143.67 -6.36 143.34 -5 143 C-5 142.34 -5 141.68 -5 141 C-4.34 141 -3.68 141 -3 141 C-3 140.34 -3 139.68 -3 139 C-2.34 139 -1.68 139 -1 139 C-0.24912387 135.64933346 0.12607949 132.55272016 0.12939453 129.12133789 C0.13254669 128.1800856 0.13569885 127.23883331 0.13894653 126.26905823 C0.1369223 125.26374557 0.13489807 124.25843292 0.1328125 123.22265625 C0.13376923 122.17855087 0.13472595 121.1344455 0.13571167 120.05870056 C0.13639115 117.85399312 0.13455307 115.64928366 0.13037109 113.44458008 C0.125025 110.07824179 0.13032121 106.71203725 0.13671875 103.34570312 C0.13605782 101.20052054 0.13477636 99.05533804 0.1328125 96.91015625 C0.13584885 95.40522362 0.13584885 95.40522362 0.13894653 93.86988831 C0.12307409 89.11441663 -0.11733073 84.6885424 -1 80 C-0.5625 77.625 -0.5625 77.625 0 76 C-0.66 75.67 -1.32 75.34 -2 75 C-2.04716297 69.01828422 -2.07343449 63.03659543 -2.06640625 57.0546875 C-2.06584229 56.04390137 -2.06527832 55.03311523 -2.06469727 53.99169922 C-1.97935036 50.04512941 -1.63482772 46.14650028 -1.21875 42.22265625 C-0.83973221 36.63891202 -0.98130782 31.04810099 -1.01953125 25.45410156 C-1.05456866 16.93709036 -0.63062616 8.49093081 0 0 Z M-4 76 C-3.01 76.495 -3.01 76.495 -2 77 C-2.99 77.495 -2.99 77.495 -4 78 C-4 77.34 -4 76.68 -4 76 Z " fill="#F0C654" transform="translate(131,121)"/>
<path d="M0 0 C7.47834967 0.48827713 14.68925318 1.33405548 22 3 C22 3.33 22 3.66 22 4 C20.02 4 18.04 4 16 4 C16 4.66 16 5.32 16 6 C15.01 6.66 14.02 7.32 13 8 C12.61515763 10.73099595 12.61515763 10.73099595 12.77734375 13.93359375 C12.79603516 15.14080078 12.81472656 16.34800781 12.83398438 17.59179688 C12.88522461 19.49541992 12.88522461 19.49541992 12.9375 21.4375 C13.15480083 30.2913528 12.89686352 38.3275695 11 47 C17.6 47 24.2 47 31 47 C31 33.14 31 19.28 31 5 C29.68 4.67 28.36 4.34 27 4 C28.65 4 30.3 4 32 4 C32 18.52 32 33.04 32 48 C24.74 48 17.48 48 10 48 C10 35.13 10 22.26 10 9 C7.03 9 4.06 9 1 9 C0 8 0 8 -0.09765625 6.15234375 C-0.06510417 4.1015625 -0.03255208 2.05078125 0 0 Z " fill="#A7732F" transform="translate(243,219)"/>
<path d="M0 0 C0.33 0 0.66 0 1 0 C1 68.97 1 137.94 1 209 C0.67 209 0.34 209 0 209 C-0.01030746 207.90197052 -0.02061493 206.80394104 -0.03123474 205.67263794 C-0.12884218 195.34247056 -0.23156407 185.01236512 -0.33933926 174.68229866 C-0.39458654 169.37106557 -0.44800943 164.059827 -0.49731445 158.74853516 C-0.54493136 153.62623054 -0.59727319 148.50399432 -0.65294075 143.38177109 C-0.67337643 141.42409841 -0.69208748 139.46640697 -0.70907402 137.50870132 C-0.73309118 134.77412357 -0.76314937 132.03967577 -0.79467773 129.30517578 C-0.8004332 128.48950134 -0.80618866 127.6738269 -0.81211853 126.83343506 C-0.77284124 122.78537457 -0.77284124 122.78537457 -2 119 C-2.99 119 -3.98 119 -5 119 C-4.505 118.01 -4.505 118.01 -4 117 C-3.91627853 115.51371893 -3.89269964 114.02376221 -3.90234375 112.53515625 C-3.90556641 111.65279297 -3.90878906 110.77042969 -3.91210938 109.86132812 C-3.92048828 108.93771484 -3.92886719 108.01410156 -3.9375 107.0625 C-3.94201172 106.14275391 -3.94652344 105.22300781 -3.95117188 104.27539062 C-3.95990384 102.56517255 -3.97068358 100.85496289 -3.98413086 99.14477539 C-3.99681926 97.42988904 -4 95.71493329 -4 94 C-3.01 94.99 -2.02 95.98 -1 97 C-0.67 64.99 -0.34 32.98 0 0 Z " fill="#624936" transform="translate(113,57)"/>
<path d="M0 0 C26.73 0 53.46 0 81 0 C81 0.33 81 0.66 81 1 C73.41 1 65.82 1 58 1 C58 1.66 58 2.32 58 3 C60.97 3 63.94 3 67 3 C67 3.33 67 3.66 67 4 C44.89 4 22.78 4 0 4 C0 2.68 0 1.36 0 0 Z " fill="#A86D0E" transform="translate(50,275)"/>
<path d="M0 0 C7.8452142 1.3075357 14.76315868 3.76651771 22 7 C22 7.66 22 8.32 22 9 C21.34 9 20.68 9 20 9 C20 11.64 20 14.28 20 17 C13.24289769 15.9413873 6.60675438 14.77874156 0 13 C0 8.71 0 4.42 0 0 Z " fill="#E2B63B" transform="translate(190,205)"/>
<path d="M0 0 C6.93 0 13.86 0 21 0 C21 0.33 21 0.66 21 1 C38.42739291 1.87841504 55.8328926 2.19717934 73.28037834 2.30332303 C76.80368093 2.32566323 80.32694696 2.3528097 83.85021973 2.37937927 C90.47926925 2.42867392 97.10833975 2.47383861 103.73742914 2.51740164 C111.30255766 2.56732578 118.86764942 2.62203351 126.43274212 2.67708123 C141.95512721 2.78992655 157.47754649 2.89696558 173 3 C173 3.33 173 3.66 173 4 C114.26 4 55.52 4 -5 4 C-5 3.67 -5 3.34 -5 3 C0.94 2.67 6.88 2.34 13 2 C8.71 1.67 4.42 1.34 0 1 C0 0.67 0 0.34 0 0 Z " fill="#5E4F5E" transform="translate(114,266)"/>
<path d="M0 0 C5.47238379 2.79091574 9.09758154 5.78502317 13 10.5 C13.50144531 11.06847656 14.00289062 11.63695313 14.51953125 12.22265625 C18.04599543 16.40972529 18.04599543 16.40972529 17.8125 19.40625 C17.544375 19.9321875 17.27625 20.458125 17 21 C10.41383913 22.02451391 6.63093149 19.33641227 1.16015625 15.82421875 C0.09087891 14.92123047 0.09087891 14.92123047 -1 14 C-1 13.01 -1 12.02 -1 11 C-1.99 10.67 -2.98 10.34 -4 10 C-3.649375 9.4225 -3.29875 8.845 -2.9375 8.25 C-1.85082593 5.64198224 -2.06934867 4.60582371 -3 2 C-2.01 1.34 -1.02 0.68 0 0 Z " fill="#E5E8A4" transform="translate(150,91)"/>
<path d="M0 0 C3.3 0.33 6.6 0.66 10 1 C9.67 5.62 9.34 10.24 9 15 C9.66 15 10.32 15 11 15 C11 15.66 11 16.32 11 17 C7.04 16.67 3.08 16.34 -1 16 C-1 13.36 -1 10.72 -1 8 C-2.32 10.64 -3.64 13.28 -5 16 C-8.24732932 14.37633534 -8.70155136 11.24612161 -10 8 C-10 10.64 -10 13.28 -10 16 C-11.32 15.67 -12.64 15.34 -14 15 C-14 10.38 -14 5.76 -14 1 C-12.68 1 -11.36 1 -10 1 C-9.32880451 2.4562545 -8.66318193 3.91507867 -8 5.375 C-7.443125 6.59316406 -7.443125 6.59316406 -6.875 7.8359375 C-6 10 -6 10 -6 12 C-5.34 12 -4.68 12 -4 12 C-3.8453125 10.9790625 -3.8453125 10.9790625 -3.6875 9.9375 C-2.85274981 6.37084011 -1.50527246 3.33777806 0 0 Z " fill="#5D5B8A" transform="translate(221,287)"/>
<path d="M0 0 C2.59985779 3.82332028 1.72317149 6.58865394 1 11 C0.99735539 12.54180516 1.01890558 14.08380901 1.0625 15.625 C1.09297744 19.20914648 0.85996618 21.8380575 -1 25 C-3.125 26.8125 -3.125 26.8125 -5 28 C-5.66 27.67 -6.32 27.34 -7 27 C-7 24.69 -7 22.38 -7 20 C-8.32 20.33 -9.64 20.66 -11 21 C-11.7421875 18.91796875 -11.7421875 18.91796875 -12 16 C-10.79960507 13.57891361 -9.6247272 11.52698012 -8.125 9.3125 C-7.37733604 8.16293476 -6.62992892 7.01320242 -5.8828125 5.86328125 C-5.26148438 4.91839844 -4.64015625 3.97351563 -4 3 C-3.67 2.34 -3.34 1.68 -3 1 C-2.01 0.67 -1.02 0.34 0 0 Z " fill="#D99617" transform="translate(213,101)"/>
<path d="M0 0 C10.75275471 -0.04632182 21.50548572 -0.08186845 32.25831985 -0.10362434 C37.25118787 -0.11406559 42.24398766 -0.12823107 47.23681641 -0.15087891 C52.05434592 -0.17259505 56.87180978 -0.18456606 61.68938446 -0.18975449 C63.52820621 -0.19345244 65.36702434 -0.20067354 67.20581818 -0.21146011 C69.77954399 -0.22595867 72.35299779 -0.22797863 74.92675781 -0.22705078 C75.68848801 -0.23424133 76.4502182 -0.24143188 77.23503113 -0.24884033 C81.30423362 -0.23294603 83.2508801 0.12544005 87 2 C37.005 2.495 37.005 2.495 -14 3 C-14 2.67 -14 2.34 -14 2 C-9.38 1.67 -4.76 1.34 0 1 C0 0.67 0 0.34 0 0 Z " fill="#D39205" transform="translate(200,276)"/>
<path d="M0 0 C4.16208077 1.66483231 7.8899777 3.48544238 11.8125 5.625 C12.40998047 5.94984375 13.00746094 6.2746875 13.62304688 6.609375 C15.08337135 7.40379151 16.54187491 8.20155376 18 9 C15.484929 9.64120491 12.97947695 10.21484696 10.4375 10.75 C6.39984831 12.21823698 5.99856482 13.38354937 4 17 C2.68 17 1.36 17 0 17 C0 11.39 0 5.78 0 0 Z " fill="#E5DE7C" transform="translate(138,179)"/>
<path d="M0 0 C0.66 0 1.32 0 2 0 C2 1.32 2 2.64 2 4 C2.66 4 3.32 4 4 4 C4.125 10.625 4.125 10.625 3 14 C3.68181089 16.19061613 3.68181089 16.19061613 4.8125 18.4375 C5.16957031 19.19933594 5.52664062 19.96117188 5.89453125 20.74609375 C6.91954744 22.83596774 7.9533391 24.92088626 9 27 C9.99 26.67 10.98 26.34 12 26 C11.01 28.97 10.02 31.94 9 35 C8.34 35 7.68 35 7 35 C7 34.01 7 33.02 7 32 C5.35 31.67 3.7 31.34 2 31 C2 30.34 2 29.68 2 29 C0.54166642 27.37485532 0.54166642 27.37485532 -1 26 C-0.49984375 25.29359375 0.0003125 24.5871875 0.515625 23.859375 C2.24814633 20.52199181 2.19887822 18.93860799 1.75 15.25 C1.63269531 14.2084375 1.51539063 13.166875 1.39453125 12.09375 C1.26433594 11.0728125 1.13414062 10.051875 1 9 C0.81076458 7.25018681 0.62304425 5.50020844 0.4375 3.75 C0.293125 2.5125 0.14875 1.275 0 0 Z " fill="#F5E578" transform="translate(135,62)"/>
<path d="M0 0 C0.185625 0.556875 0.37125 1.11375 0.5625 1.6875 C2.39034979 4.627954 4.60963871 5.8866389 7.5390625 7.65625 C8.02117187 8.0996875 8.50328125 8.543125 9 9 C9 10.32 9 11.64 9 13 C7.35 13 5.7 13 4 13 C3.67 12.01 3.34 11.02 3 10 C2.34 10 1.68 10 1 10 C1 11.32 1 12.64 1 14 C1.66 14.33 2.32 14.66 3 15 C0.69 15.33 -1.62 15.66 -4 16 C-4.99 14.68 -5.98 13.36 -7 12 C-7.99 13.485 -7.99 13.485 -9 15 C-11.8984375 15.546875 -11.8984375 15.546875 -15.375 15.75 C-16.51710938 15.82734375 -17.65921875 15.9046875 -18.8359375 15.984375 C-21.50470268 15.99755409 -23.48683405 15.81708844 -26 15 C-26 14.01 -26 13.02 -26 12 C-25.01 12.495 -25.01 12.495 -24 13 C-22.29636178 13.22622081 -20.58671299 13.40888473 -18.875 13.5625 C-17.96492188 13.64628906 -17.05484375 13.73007812 -16.1171875 13.81640625 C-15.06917969 13.90728516 -15.06917969 13.90728516 -14 14 C-14 12.68 -14 11.36 -14 10 C-13.34 10 -12.68 10 -12 10 C-11.87625 9.05125 -11.7525 8.1025 -11.625 7.125 C-11 4 -11 4 -9 2 C-9.66 4.97 -10.32 7.94 -11 11 C-10.67 10.67 -10.34 10.34 -10 10 C-8.00041636 9.95919217 -5.99954746 9.95745644 -4 10 C-4 11.32 -4 12.64 -4 14 C-3.01 13.67 -2.02 13.34 -1 13 C-0.40929986 11.05396726 -0.40929986 11.05396726 0 9 C0.66 8.34 1.32 7.68 2 7 C1.34 6.34 0.68 5.68 0 5 C-0.125 2.375 -0.125 2.375 0 0 Z " fill="#17163F" transform="translate(111,289)"/>
<path d="M0 0 C0.33 0 0.66 0 1 0 C1.33 1.98 1.66 3.96 2 6 C2.66 5.67 3.32 5.34 4 5 C4 14.9 4 24.8 4 35 C2.68 34.67 1.36 34.34 0 34 C0 22.78 0 11.56 0 0 Z " fill="#DF9605" transform="translate(210,230)"/>
<path d="M0 0 C1.32 0 2.64 0 4 0 C4.67119549 1.4562545 5.33681807 2.91507867 6 4.375 C6.556875 5.59316406 6.556875 5.59316406 7.125 6.8359375 C8 9 8 9 8 11 C8.66 11 9.32 11 10 11 C10.1546875 9.948125 10.1546875 9.948125 10.3125 8.875 C11.09359003 5.60862353 12.42058743 2.9528148 14 0 C14.99 0.33 15.98 0.66 17 1 C16.67 5.29 16.34 9.58 16 14 C16.66 14.33 17.32 14.66 18 15 C16.35 15 14.7 15 13 15 C13 12.36 13 9.72 13 7 C11.68 9.64 10.36 12.28 9 15 C5.75267068 13.37633534 5.29844864 10.24612161 4 7 C4 9.64 4 12.28 4 15 C2.68 14.67 1.36 14.34 0 14 C0 9.38 0 4.76 0 0 Z " fill="#B8B495" transform="translate(207,288)"/>
<path d="M0 0 C0.33 0 0.66 0 1 0 C1.33 5.94 1.66 11.88 2 18 C2.33 18 2.66 18 3 18 C3.02684312 20.81256281 3.04676188 23.62487241 3.0625 26.4375 C3.07087891 27.23994141 3.07925781 28.04238281 3.08789062 28.86914062 C3.0965143 30.91295221 3.0522815 32.95683902 3 35 C2.505 35.495 2.505 35.495 2 36 C1.83982834 38.80976518 1.74049466 41.59773596 1.68359375 44.41015625 C1.66281265 45.25219101 1.64203156 46.09422577 1.62062073 46.96177673 C1.55503188 49.66193179 1.49619724 52.36218717 1.4375 55.0625 C1.39432363 56.88868241 1.35070964 58.71485454 1.30664062 60.54101562 C1.19934106 65.02723992 1.09810034 69.5135655 1 74 C2.32 74.33 3.64 74.66 5 75 C3.35 75 1.7 75 0 75 C0 50.25 0 25.5 0 0 Z " fill="#F5F99E" transform="translate(168,190)"/>
<path d="M0 0 C0 4.29 0 8.58 0 13 C-0.99 13.495 -0.99 13.495 -2 14 C-2.33 31.82 -2.66 49.64 -3 68 C-3.33 68 -3.66 68 -4 68 C-4 45.89 -4 23.78 -4 1 C-1 0 -1 0 0 0 Z " fill="#F6DF64" transform="translate(186,193)"/>
<path d="M0 0 C2.01450868 0.33965553 4.01372478 0.77216964 6 1.25 C7.093125 1.50265625 8.18625 1.7553125 9.3125 2.015625 C10.6428125 2.50289062 10.6428125 2.50289062 12 3 C12.33 3.99 12.66 4.98 13 6 C12.34 6 11.68 6 11 6 C11 8.64 11 11.28 11 14 C10.4225 13.319375 9.845 12.63875 9.25 11.9375 C8.5075 11.298125 7.765 10.65875 7 10 C4.78141747 10.13641377 4.78141747 10.13641377 3 11 C2.67 9.68 2.34 8.36 2 7 C0.68 6.67 -0.64 6.34 -2 6 C-1.125 1.125 -1.125 1.125 0 0 Z " fill="#E6AC22" transform="translate(199,208)"/>
<path d="M0 0 C0.33 0.99 0.66 1.98 1 3 C2.65 2.34 4.3 1.68 6 1 C6.43097643 6.25791246 6.43097643 6.25791246 6 9 C3.8125 11.125 3.8125 11.125 1 12 C-1.75 11.3125 -1.75 11.3125 -4 10 C-4.33 9.34 -4.66 8.68 -5 8 C-4.67 7.01 -4.34 6.02 -4 5 C-4.66 5 -5.32 5 -6 5 C-6 3.68 -6 2.36 -6 1 C-4.7934375 1.0309375 -4.7934375 1.0309375 -3.5625 1.0625 C-1.06645115 1.29633621 -1.06645115 1.29633621 0 0 Z " fill="#F2F8AD" transform="translate(156,193)"/>
<path d="M0 0 C0.33 0 0.66 0 1 0 C1 6.93 1 13.86 1 21 C-1.31 19.02 -3.62 17.04 -6 15 C-7.32 14.01 -8.64 13.02 -10 12 C-10 15.3 -10 18.6 -10 22 C-10.33 22 -10.66 22 -11 22 C-11 18.37 -11 14.74 -11 11 C-9.35 11 -7.7 11 -6 11 C-5.67 9.68 -5.34 8.36 -5 7 C-5 7.99 -5 8.98 -5 10 C-4.01 10 -3.02 10 -2 10 C-1.855625 9.0925 -1.71125 8.185 -1.5625 7.25 C-1.13590527 4.78523044 -0.64925779 2.41152893 0 0 Z " fill="#C88B25" transform="translate(109,154)"/>
<path d="M0 0 C0 0.99 0 1.98 0 3 C-0.66 3 -1.32 3 -2 3 C-2 3.99 -2 4.98 -2 6 C-1.34 6.33 -0.68 6.66 0 7 C-5.445 9.475 -5.445 9.475 -11 12 C-11.33 10.68 -11.66 9.36 -12 8 C-13.98 8.99 -13.98 8.99 -16 10 C-15.06409496 8.8944811 -14.12620142 7.79064547 -13.1875 6.6875 C-12.66542969 6.07261719 -12.14335937 5.45773438 -11.60546875 4.82421875 C-5.69039735 -1.89679912 -5.69039735 -1.89679912 0 0 Z " fill="#EBBA38" transform="translate(198,130)"/>
<path d="M0 0 C5 0 5 0 6.8125 1.0625 C8.67036623 4.09375543 8.37133265 6.53422859 8 10 C6.8125 11.9375 6.8125 11.9375 5 13 C3.35 13 1.7 13 0 13 C0 8.71 0 4.42 0 0 Z " fill="#2D2B98" transform="translate(264,289)"/>
<path d="M0 0 C0.99 0 1.98 0 3 0 C3.36156104 2.79089265 3.71454833 5.58240722 4.0625 8.375 C4.16626953 9.1690625 4.27003906 9.963125 4.37695312 10.78125 C5.11328125 16.7734375 5.11328125 16.7734375 4 19 C3.88042526 20.81718084 3.8227532 22.63857835 3.79467773 24.45947266 C3.77473251 25.60050446 3.75478729 26.74153625 3.73423767 27.91714478 C3.71752518 29.15362762 3.70081268 30.39011047 3.68359375 31.6640625 C3.66281265 32.92640717 3.64203156 34.18875183 3.62062073 35.48934937 C3.56622074 38.84632045 3.51599764 42.20330189 3.46777344 45.56036377 C3.41754958 48.98561065 3.36186814 52.41076829 3.30664062 55.8359375 C3.19938141 62.55722061 3.0976256 69.27857044 3 76 C2.67 76 2.34 76 2 76 C2 51.25 2 26.5 2 1 C1.34 0.67 0.68 0.34 0 0 Z " fill="#C7811E" transform="translate(218,118)"/>
<path d="M0 0 C2.64 0.33 5.28 0.66 8 1 C8.02685938 3.14576637 8.04633088 5.29162645 8.0625 7.4375 C8.07410156 8.63246094 8.08570313 9.82742188 8.09765625 11.05859375 C8 14 8 14 7 15 C4.69 15 2.38 15 0 15 C0 10.05 0 5.1 0 0 Z M4 1 C4 4.96 4 8.92 4 13 C4.33 13 4.66 13 5 13 C5 9.04 5 5.08 5 1 C4.67 1 4.34 1 4 1 Z " fill="#2F2D78" transform="translate(200,288)"/>
<path d="M0 0 C0.99 0 1.98 0 3 0 C3.95173576 2.14140547 4.89998841 4.28350215 5.83203125 6.43359375 C6.95305866 8.98457544 6.95305866 8.98457544 8.26171875 11.28515625 C11.19400597 16.80876706 11.19400597 16.80876706 10.58203125 20.56640625 C9.84037676 22.79136972 9.01818801 24.88875721 8 27 C7.34 26.01 6.68 25.02 6 24 C5.4225 23.154375 4.845 22.30875 4.25 21.4375 C2.48311612 16.57856933 3.66059561 12.87581742 5 8 C4.34 8 3.68 8 3 8 C3 6.68 3 5.36 3 4 C2.34 4 1.68 4 1 4 C0.67 2.68 0.34 1.36 0 0 Z " fill="#EDE78C" transform="translate(134,58)"/>
<path d="M0 0 C6.93 0 13.86 0 21 0 C21 0.33 21 0.66 21 1 C28.92 1.33 36.84 1.66 45 2 C45 2.33 45 2.66 45 3 C28.32254901 3.80652367 11.69636365 4.13958375 -5 4 C-5 3.67 -5 3.34 -5 3 C0.94 2.67 6.88 2.34 13 2 C8.71 1.67 4.42 1.34 0 1 C0 0.67 0 0.34 0 0 Z " fill="#41374A" transform="translate(114,266)"/>
<path d="M0 0 C0.99 0.33 1.98 0.66 3 1 C5.00668763 5.9639115 5.14144297 10.32442547 4.98828125 15.63671875 C4.9174116 18.19170895 4.9174116 18.19170895 5.75 21.375 C5.8325 22.24125 5.915 23.1075 6 24 C4.68 25.32 3.36 26.64 2 28 C2 22.39 2 16.78 2 11 C1.34 11 0.68 11 0 11 C0 7.37 0 3.74 0 0 Z " fill="#F6D767" transform="translate(132,59)"/>
<path d="M0 0 C0.99 0 1.98 0 3 0 C4.82421875 2.1875 4.82421875 2.1875 6.6875 5 C7.31011719 5.928125 7.93273437 6.85625 8.57421875 7.8125 C9.04472656 8.534375 9.51523438 9.25625 10 10 C10 6.7 10 3.4 10 0 C11.32 0.33 12.64 0.66 14 1 C13.67 5.62 13.34 10.24 13 15 C9.32257874 13.16128937 8.4024598 12.63568217 6.25 9.5 C5.82203125 8.8915625 5.3940625 8.283125 4.953125 7.65625 C4 6 4 6 4 4 C3.34 4 2.68 4 2 4 C2 7.3 2 10.6 2 14 C2.66 14.33 3.32 14.66 4 15 C2.68 14.67 1.36 14.34 0 14 C0 9.38 0 4.76 0 0 Z " fill="#C4C193" transform="translate(166,288)"/>
<path d="M0 0 C2.55227651 3.07150755 3.88776704 5.98525624 5.1875 9.75 C5.53167969 10.73484375 5.87585938 11.7196875 6.23046875 12.734375 C6.48441406 13.48203125 6.73835938 14.2296875 7 15 C5.68 15 4.36 15 3 15 C3 13.68 3 12.36 3 11 C1.02 11 -0.96 11 -3 11 C-3 12.32 -3 13.64 -3 15 C-3.99 14.67 -4.98 14.34 -6 14 C-5.19074658 11.85294019 -4.37750887 9.7073817 -3.5625 7.5625 C-3.11003906 6.36753906 -2.65757813 5.17257812 -2.19140625 3.94140625 C-1 1 -1 1 0 0 Z " fill="#7B7869" transform="translate(104,288)"/>
<path d="M0 0 C1.65 0 3.3 0 5 0 C5 1.98 5 3.96 5 6 C5.99 5.01 6.98 4.02 8 3 C8.12375 4.5778125 8.12375 4.5778125 8.25 6.1875 C9.05320762 10.27047209 10.19334709 12.0122727 13 15 C9.74456771 14.65120368 8.98126893 13.97866739 6.75 11.4375 C5.88375 10.2309375 5.88375 10.2309375 5 9 C5 10.98 5 12.96 5 15 C3.35 15 1.7 15 0 15 C0 10.05 0 5.1 0 0 Z " fill="#BBB88D" transform="translate(138,288)"/>
<path d="M0 0 C8.08587944 -0.35672998 8.08587944 -0.35672998 11.5625 1 C13.44027271 3.61255333 13.5637895 5.88787271 13.37109375 9.05859375 C13 11 13 11 11.5625 13.5 C7.66194794 15.78324998 4.47500399 15.26323553 0 15 C0 10.05 0 5.1 0 0 Z M3 1 C3 5.29 3 9.58 3 14 C7.6312462 14.42143292 7.6312462 14.42143292 9.8125 12.9375 C11.67036623 9.90624457 11.37133265 7.46577141 11 4 C9.95625978 1.95548981 9.95625978 1.95548981 8 1 C6.35 1 4.7 1 3 1 Z " fill="#E6E4A2" transform="translate(261,288)"/>
<path d="M0 0 C8.91 0 17.82 0 27 0 C26.67 0.99 26.34 1.98 26 3 C8.14350797 3.18451025 8.14350797 3.18451025 0 2 C0 1.34 0 0.68 0 0 Z " fill="#D7AB38" transform="translate(108,276)"/>
<path d="M0 0 C2 2 2 2 2.1953125 4.8203125 C2.16050781 6.45613281 2.16050781 6.45613281 2.125 8.125 C2.10695312 9.22070312 2.08890625 10.31640625 2.0703125 11.4453125 C2.04710937 12.28835938 2.02390625 13.13140625 2 14 C-1.20162702 13.40137646 -1.91936515 13.08735442 -4.25 10.5625 C-6 8 -6 8 -6 6 C-4.34997172 4.64613064 -2.6825613 3.31321858 -1 2 C-0.67 1.34 -0.34 0.68 0 0 Z " fill="#161555" transform="translate(151,288)"/>
<path d="M0 0 C3.93743833 -0.05797565 7.87476719 -0.09358789 11.8125 -0.125 C12.93205078 -0.14175781 14.05160156 -0.15851563 15.20507812 -0.17578125 C16.27822266 -0.18222656 17.35136719 -0.18867188 18.45703125 -0.1953125 C19.9416687 -0.21102295 19.9416687 -0.21102295 21.45629883 -0.22705078 C24 0 24 0 27 2 C13.32060126 2.73091572 -0.30109362 3.14236739 -14 3 C-14 2.67 -14 2.34 -14 2 C-9.38 1.67 -4.76 1.34 0 1 C0 0.67 0 0.34 0 0 Z " fill="#CFA02A" transform="translate(200,276)"/>
<path d="M0 0 C2.05078125 0.03255208 4.1015625 0.06510417 6.15234375 0.09765625 C6.15234375 1.74765625 6.15234375 3.39765625 6.15234375 5.09765625 C5.49234375 5.09765625 4.83234375 5.09765625 4.15234375 5.09765625 C3.82234375 4.10765625 3.49234375 3.11765625 3.15234375 2.09765625 C1.83234375 2.09765625 0.51234375 2.09765625 -0.84765625 2.09765625 C0.27583112 5.05957749 0.93164411 5.97679692 3.77734375 7.53515625 C4.95296875 8.30859375 4.95296875 8.30859375 6.15234375 9.09765625 C6.52734375 11.72265625 6.52734375 11.72265625 6.15234375 14.09765625 C5.15234375 15.09765625 5.15234375 15.09765625 3.0859375 15.1953125 C2.26222656 15.18371094 1.43851562 15.17210937 0.58984375 15.16015625 C-0.23644531 15.15113281 -1.06273438 15.14210938 -1.9140625 15.1328125 C-2.55214844 15.12121094 -3.19023438 15.10960937 -3.84765625 15.09765625 C-3.84765625 13.77765625 -3.84765625 12.45765625 -3.84765625 11.09765625 C-3.18765625 11.09765625 -2.52765625 11.09765625 -1.84765625 11.09765625 C-1.51765625 11.75765625 -1.18765625 12.41765625 -0.84765625 13.09765625 C1.6796761 13.75320744 1.6796761 13.75320744 4.15234375 14.09765625 C4.10465972 12.21884753 4.10465972 12.21884753 3.15234375 10.09765625 C2.14171875 9.45828125 1.13109375 8.81890625 0.08984375 8.16015625 C-0.87953125 7.47953125 -1.84890625 6.79890625 -2.84765625 6.09765625 C-3.28515625 3.41015625 -3.28515625 3.41015625 -2.84765625 1.09765625 C-1.84765625 0.09765625 -1.84765625 0.09765625 0 0 Z " fill="#DFDC9A" transform="translate(115.84765625,287.90234375)"/>
<path d="M0 0 C4.29 0 8.58 0 13 0 C12.67 1.32 12.34 2.64 12 4 C11.67 3.34 11.34 2.68 11 2 C10.01 1.67 9.02 1.34 8 1 C8.33 5.62 8.66 10.24 9 15 C7.35 15 5.7 15 4 15 C4.33 10.38 4.66 5.76 5 1 C1.9254644 1.7763932 1.9254644 1.7763932 0 4 C0 2.68 0 1.36 0 0 Z " fill="#B9B59B" transform="translate(233,288)"/>
<path d="M0 0 C3.3 0 6.6 0 10 0 C9.67 1.32 9.34 2.64 9 4 C8.67 3.34 8.34 2.68 8 2 C5.47266765 1.34444881 5.47266765 1.34444881 3 1 C3 2.98 3 4.96 3 7 C4.32 7 5.64 7 7 7 C7.33 6.34 7.66 5.68 8 5 C7.67 6.32 7.34 7.64 7 9 C5.68 8.67 4.36 8.34 3 8 C3 9.98 3 11.96 3 14 C4.98 14 6.96 14 9 14 C9.33 13.01 9.66 12.02 10 11 C10.33 12.32 10.66 13.64 11 15 C7.37 15 3.74 15 0 15 C0 10.05 0 5.1 0 0 Z " fill="#D4CE9F" transform="translate(248,288)"/>
<path d="M0 0 C3.3 0 6.6 0 10 0 C9.67 1.32 9.34 2.64 9 4 C8.67 3.34 8.34 2.68 8 2 C5.47266765 1.34444881 5.47266765 1.34444881 3 1 C3 2.98 3 4.96 3 7 C4.32 7 5.64 7 7 7 C7.33 6.34 7.66 5.68 8 5 C7.67 6.32 7.34 7.64 7 9 C5.68 8.67 4.36 8.34 3 8 C3 9.98 3 11.96 3 14 C4.98 14 6.96 14 9 14 C9.33 13.01 9.66 12.02 10 11 C10.33 12.32 10.66 13.64 11 15 C7.37 15 3.74 15 0 15 C0 10.05 0 5.1 0 0 Z " fill="#D1CC95" transform="translate(153,288)"/>
<path d="M0 0 C1.89611434 0.14213297 3.79188394 0.28886907 5.6875 0.4375 C6.74324219 0.51871094 7.79898438 0.59992188 8.88671875 0.68359375 C11.65086297 0.96451681 14.28945741 1.40156852 17 2 C17 2.33 17 2.66 17 3 C14.03 3 11.06 3 8 3 C8 3.66 8 4.32 8 5 C7.34 4.67 6.68 4.34 6 4 C5.67 4.33 5.34 4.66 5 5 C4.34 5.66 3.68 6.32 3 7 C5.97 7.495 5.97 7.495 9 8 C9 8.33 9 8.66 9 9 C2.84765625 9.09765625 2.84765625 9.09765625 1 9 C0 8 0 8 -0.09765625 6.15234375 C-0.06510417 4.1015625 -0.03255208 2.05078125 0 0 Z " fill="#A46619" transform="translate(243,219)"/>
<path d="M0 0 C3.3 0 6.6 0 10 0 C9.67 0.99 9.34 1.98 9 3 C9 2.34 9 1.68 9 1 C7.02 1 5.04 1 3 1 C3 2.98 3 4.96 3 7 C4.32 7 5.64 7 7 7 C7.33 6.34 7.66 5.68 8 5 C7.67 6.32 7.34 7.64 7 9 C5.68 8.67 4.36 8.34 3 8 C3 9.98 3 11.96 3 14 C7.47883696 13.55296014 7.47883696 13.55296014 11 11 C11 12.32 11 13.64 11 15 C7.37 15 3.74 15 0 15 C0 10.05 0 5.1 0 0 Z " fill="#D4CF90" transform="translate(86,288)"/>
<path d="M0 0 C1.23556641 0.01740234 1.23556641 0.01740234 2.49609375 0.03515625 C3.32238281 0.04417969 4.14867188 0.05320312 5 0.0625 C5.63808594 0.07410156 6.27617188 0.08570313 6.93359375 0.09765625 C6.93359375 1.74765625 6.93359375 3.39765625 6.93359375 5.09765625 C0.33359375 5.09765625 -6.26640625 5.09765625 -13.06640625 5.09765625 C-10.09459658 3.1164498 -8.55524189 2.43803046 -5.06640625 2.09765625 C-2.75390625 3.03515625 -2.75390625 3.03515625 -1.06640625 4.09765625 C-1.06640625 3.43765625 -1.06640625 2.77765625 -1.06640625 2.09765625 C-1.72640625 1.76765625 -2.38640625 1.43765625 -3.06640625 1.09765625 C-2.06640625 0.09765625 -2.06640625 0.09765625 0 0 Z " fill="#D98A0A" transform="translate(92.06640625,259.90234375)"/>
<path d="M0 0 C2 4 2 4 1.625 6.25 C1.41875 6.8275 1.2125 7.405 1 8 C1.66 8 2.32 8 3 8 C3 7.01 3 6.02 3 5 C3.66 5 4.32 5 5 5 C4.65226572 11.63093294 4.03910346 17.053928 1 23 C0.67 23 0.34 23 0 23 C0 15.41 0 7.82 0 0 Z " fill="#CC992A" transform="translate(115,159)"/>
<path d="M0 0 C1.96191406 1.15356445 1.96191406 1.15356445 4 3 C4.54589844 5.54370117 4.54589844 5.54370117 4.609375 8.54296875 C4.64160156 9.61611328 4.67382812 10.68925781 4.70703125 11.79492188 C4.72121094 12.91447266 4.73539062 14.03402344 4.75 15.1875 C4.79447266 16.88422852 4.79447266 16.88422852 4.83984375 18.61523438 C4.91060309 21.41022833 4.96326976 24.20438528 5 27 C4.34 26.34 3.68 25.68 3 25 C2.01 25 1.02 25 0 25 C0.33 24.34 0.66 23.68 1 23 C1.09539873 21.51411977 1.13073484 20.02409435 1.1328125 18.53515625 C1.13410156 17.65279297 1.13539062 16.77042969 1.13671875 15.86132812 C1.13285156 14.93771484 1.12898438 14.01410156 1.125 13.0625 C1.12886719 12.14275391 1.13273437 11.22300781 1.13671875 10.27539062 C1.13542969 9.39173828 1.13414063 8.50808594 1.1328125 7.59765625 C1.13168457 6.78820557 1.13055664 5.97875488 1.12939453 5.14477539 C1.08150607 2.81364562 1.08150607 2.81364562 0 0 Z " fill="#4C3939" transform="translate(108,151)"/>
<path d="M0 0 C4.12751449 0.60698743 7.3321148 2.03810791 11 4 C10.484375 4.12375 9.96875 4.2475 9.4375 4.375 C8.2309375 4.684375 8.2309375 4.684375 7 5 C5.824375 5.268125 4.64875 5.53625 3.4375 5.8125 C-0.42397509 6.78718899 -0.42397509 6.78718899 -3 11 C-3 7.7 -3 4.4 -3 1 C-2.01 1.33 -1.02 1.66 0 2 C0 1.34 0 0.68 0 0 Z M-6 11 C-3 12 -3 12 -3 12 Z " fill="#E4E587" transform="translate(145,184)"/>
<path d="M0 0 C3.125 -0.1875 3.125 -0.1875 6 0 C6 0.33 6 0.66 6 1 C13.26 1.33 20.52 1.66 28 2 C28 1.34 28 0.68 28 0 C29.65 0 31.3 0 33 0 C32.67 0.99 32.34 1.98 32 3 C20.78 3 9.56 3 -2 3 C-1.34 2.01 -0.68 1.02 0 0 Z " fill="#352F6A" transform="translate(181,266)"/>
<path d="M0 0 C0.99 0.33 1.98 0.66 3 1 C2.67 5.29 2.34 9.58 2 14 C2.66 14.33 3.32 14.66 4 15 C2.35 15 0.7 15 -1 15 C-1 12.36 -1 9.72 -1 7 C-1.66 8.65 -2.32 10.3 -3 12 C-3.99 11.67 -4.98 11.34 -6 11 C-5.34 11 -4.68 11 -4 11 C-3.896875 10.29875 -3.79375 9.5975 -3.6875 8.875 C-2.90640997 5.60862353 -1.57941257 2.9528148 0 0 Z " fill="#C9C49A" transform="translate(221,288)"/>
<path d="M0 0 C0.33 0.99 0.66 1.98 1 3 C2.98 2.67 4.96 2.34 7 2 C7 2.99 7 3.98 7 5 C10.96 5.33 14.92 5.66 19 6 C19 6.33 19 6.66 19 7 C12.4 7 5.8 7 -1 7 C-1 1 -1 1 0 0 Z " fill="#D59018" transform="translate(255,259)"/>
<path d="M0 0 C0.33 0.66 0.66 1.32 1 2 C3.31 2 5.62 2 8 2 C8 2.99 8 3.98 8 5 C5.70839681 5.02692484 3.41670454 5.04636124 1.125 5.0625 C-0.15117187 5.07410156 -1.42734375 5.08570313 -2.7421875 5.09765625 C-6 5 -6 5 -8 4 C-8 3.34 -8 2.68 -8 2 C-5.36 2 -2.72 2 0 2 C0 1.34 0 0.68 0 0 Z " fill="#323067" transform="translate(165,264)"/>
<path d="M0 0 C0.66 0 1.32 0 2 0 C2 5.61 2 11.22 2 17 C-1 14 -1 14 -1.328125 10.8984375 C-1.30234375 9.73570312 -1.2765625 8.57296875 -1.25 7.375 C-1.23453125 6.20710937 -1.2190625 5.03921875 -1.203125 3.8359375 C-1 1 -1 1 0 0 Z " fill="#F1D25C" transform="translate(184,206)"/>
<path d="M0 0 C2.6015625 -0.29296875 2.6015625 -0.29296875 5.625 -0.1875 C7.12933594 -0.14689453 7.12933594 -0.14689453 8.6640625 -0.10546875 C9.43492187 -0.07066406 10.20578125 -0.03585937 11 0 C11 0.33 11 0.66 11 1 C6.545 1.495 6.545 1.495 2 2 C2 6.29 2 10.58 2 15 C1.67 15 1.34 15 1 15 C0.67 12.03 0.34 9.06 0 6 C-1.65 6.33 -3.3 6.66 -5 7 C-5 5.35 -5 3.7 -5 2 C-4.01 2.33 -3.02 2.66 -2 3 C-1.34 2.01 -0.68 1.02 0 0 Z " fill="#312F8E" transform="translate(247,287)"/>
<path d="M0 0 C0.33 0 0.66 0 1 0 C1 1.65 1 3.3 1 5 C1.66 5.33 2.32 5.66 3 6 C2.01 6 1.02 6 0 6 C0.33 6.99 0.66 7.98 1 9 C-2.77545388 7.90931332 -5.47043472 7.0916909 -8 4 C-7.67 3.01 -7.34 2.02 -7 1 C-5.35 1.33 -3.7 1.66 -2 2 C-2 2.99 -2 3.98 -2 5 C-1.34 5 -0.68 5 0 5 C0 3.35 0 1.7 0 0 Z " fill="#141444" transform="translate(122,288)"/>
<path d="M0 0 C2.5363613 1.01454452 3.79351461 1.6853556 5.3125 4 C5.6528125 4.99 5.6528125 4.99 6 6 C5.67 6.66 5.34 7.32 5 8 C3.35 8 1.7 8 0 8 C0 7.34 0 6.68 0 6 C-0.99 6 -1.98 6 -3 6 C-2 4 -1 2 0 0 Z " fill="#EDF0AD" transform="translate(162,104)"/>
<path d="M0 0 C7.26 0 14.52 0 22 0 C22 0.33 22 0.66 22 1 C20.906875 1.103125 19.81375 1.20625 18.6875 1.3125 C14.88845793 2.02079598 14.41623585 2.35364645 12 5 C10.68 5 9.36 5 8 5 C8 3.68 8 2.36 8 1 C5.36 1 2.72 1 0 1 C0 0.67 0 0.34 0 0 Z " fill="#B26E1C" transform="translate(218,85)"/>
<path d="M0 0 C8.36923077 -0.36923077 8.36923077 -0.36923077 11.5625 1.5 C12.036875 1.995 12.51125 2.49 13 3 C12.67 5.31 12.34 7.62 12 10 C11.67 10 11.34 10 11 10 C10.814375 8.88625 10.62875 7.7725 10.4375 6.625 C9.963125 5.42875 9.48875 4.2325 9 3 C5.48599332 1.45913678 5.48599332 1.45913678 2 1 C2 4.96 2 8.92 2 13 C1.67 13 1.34 13 1 13 C0.67 8.71 0.34 4.42 0 0 Z " fill="#C3BE9F" transform="translate(261,288)"/>
<path d="M0 0 C2.55227651 3.07150755 3.88776704 5.98525624 5.1875 9.75 C5.53167969 10.73484375 5.87585938 11.7196875 6.23046875 12.734375 C6.61138672 13.85585938 6.61138672 13.85585938 7 15 C5.68 15 4.36 15 3 15 C1.80712589 11.12315913 1 8.08378077 1 4 C0.34 4 -0.32 4 -1 4 C-0.67 2.68 -0.34 1.36 0 0 Z " fill="#CECA91" transform="translate(104,288)"/>
<path d="M0 0 C1.65 0 3.3 0 5 0 C4.67 0.66 4.34 1.32 4 2 C3.77141886 4.0374763 3.58975722 6.08040303 3.4375 8.125 C3.35371094 9.22070312 3.26992187 10.31640625 3.18359375 11.4453125 C3.12300781 12.28835938 3.06242188 13.13140625 3 14 C3.66 14.33 4.32 14.66 5 15 C3.35 15 1.7 15 0 15 C0 10.05 0 5.1 0 0 Z " fill="#C6C399" transform="translate(200,288)"/>
<path d="M0 0 C0.99 1.32 1.98 2.64 3 4 C3.99 3.67 4.98 3.34 6 3 C5.01 5.97 4.02 8.94 3 12 C2.34 12 1.68 12 1 12 C1 11.01 1 10.02 1 9 C-0.32 8.34 -1.64 7.68 -3 7 C-2.01 6.34 -1.02 5.68 0 5 C0.25030977 2.41619823 0.25030977 2.41619823 0 0 Z " fill="#F4F388" transform="translate(141,85)"/>
<path d="M0 0 C1.32 0 2.64 0 4 0 C4 1.32 4 2.64 4 4 C4.66 4.33 5.32 4.66 6 5 C5.195625 5.28875 4.39125 5.5775 3.5625 5.875 C0.8673532 6.73262568 0.8673532 6.73262568 0 9 C-0.66 9 -1.32 9 -2 9 C-2.33 8.01 -2.66 7.02 -3 6 C-2.34 5.34 -1.68 4.68 -1 4 C-0.3574765 1.93125966 -0.3574765 1.93125966 0 0 Z " fill="#E6AD13" transform="translate(202,124)"/>
<path d="M0 0 C0.99 0.99 1.98 1.98 3 3 C1.90931332 6.77545388 1.0916909 9.47043472 -2 12 C-2.625 10.1875 -2.625 10.1875 -3 8 C-2.34 7.01 -1.68 6.02 -1 5 C-1.33 4.34 -1.66 3.68 -2 3 C-1.34 2.01 -0.68 1.02 0 0 Z " fill="#CD850D" transform="translate(220,94)"/>
<path d="M0 0 C2.84326464 -0.23053497 4.46145349 -0.35903101 6.875 1.25 C8 3 8 3 7.6875 5.1875 C7.460625 5.785625 7.23375 6.38375 7 7 C6.34 7 5.68 7 5 7 C4.67 9.64 4.34 12.28 4 15 C3.67 15 3.34 15 3 15 C3.03480469 14.08476562 3.06960937 13.16953125 3.10546875 12.2265625 C3.13253906 11.03804688 3.15960938 9.84953125 3.1875 8.625 C3.22230469 7.44164062 3.25710937 6.25828125 3.29296875 5.0390625 C3.19628906 4.03617187 3.09960938 3.03328125 3 2 C2.01 1.34 1.02 0.68 0 0 Z " fill="#393786" transform="translate(227,287)"/>
<path d="M0 0 C1.77007714 -0.08114106 3.54122098 -0.13925505 5.3125 -0.1875 C6.29863281 -0.22230469 7.28476563 -0.25710937 8.30078125 -0.29296875 C11 0 11 0 12.85546875 1.51171875 C13.23316406 2.00285156 13.61085938 2.49398437 14 3 C13.67 3.66 13.34 4.32 13 5 C11.02 5 9.04 5 7 5 C6.67 4.01 6.34 3.02 6 2 C3.03 1.505 3.03 1.505 0 1 C0 0.67 0 0.34 0 0 Z " fill="#BE841A" transform="translate(91,142)"/>
<path d="M0 0 C2.64465038 3.1254959 3.84414715 6.08788267 5 10 C2.36 10.33 -0.28 10.66 -3 11 C-2.01 10.34 -1.02 9.68 0 9 C0.36362818 6.79274927 0.36362818 6.79274927 0.1875 4.375 C0.14689453 3.14910156 0.14689453 3.14910156 0.10546875 1.8984375 C0.07066406 1.27195312 0.03585938 0.64546875 0 0 Z " fill="#252479" transform="translate(210,293)"/>
<path d="M0 0 C0.6875 1.8125 0.6875 1.8125 1 4 C0.02246356 5.02196992 -0.9805881 6.01979625 -2 7 C-2.72197162 9.60611077 -2.72197162 9.60611077 -3 12 C-3.66 10.68 -4.32 9.36 -5 8 C-6.98 8.99 -6.98 8.99 -9 10 C-8.06409496 8.8944811 -7.12620142 7.79064547 -6.1875 6.6875 C-5.66542969 6.07261719 -5.14335937 5.45773438 -4.60546875 4.82421875 C-3.12827531 3.14575321 -1.59960869 1.56117966 0 0 Z " fill="#C8AE5C" transform="translate(191,130)"/>
<path d="M0 0 C0.99 0.66 1.98 1.32 3 2 C5.11280345 2.63292383 5.11280345 2.63292383 7 3 C5.71086513 3.67154933 4.41859796 4.33708859 3.125 5 C2.40570313 5.37125 1.68640625 5.7425 0.9453125 6.125 C-1 7 -1 7 -3 7 C-2.25 2.25 -2.25 2.25 0 0 Z " fill="#E1BC47" transform="translate(191,134)"/>
<path d="M0 0 C1.45606519 4.52092968 0.27032841 7.51648796 -1 12 C-2.32 11.67 -3.64 11.34 -5 11 C-3.55049545 7.2089881 -1.84827434 3.6125362 0 0 Z " fill="#C4902B" transform="translate(210,102)"/>
<path d="M0 0 C0.99 0 1.98 0 3 0 C3 0.66 3 1.32 3 2 C3.99 2.33 4.98 2.66 6 3 C6 3.99 6 4.98 6 6 C4.02 6 2.04 6 0 6 C0 4.02 0 2.04 0 0 Z " fill="#100F35" transform="translate(89,296)"/>
<path d="M0 0 C0.99 0.99 1.98 1.98 3 3 C2.67 3.66 2.34 4.32 2 5 C0.39431334 4.71682074 -1.20952047 4.42312209 -2.8125 4.125 C-3.70582031 3.96257812 -4.59914062 3.80015625 -5.51953125 3.6328125 C-8 3 -8 3 -11 1 C-10.06027344 1.01740234 -10.06027344 1.01740234 -9.1015625 1.03515625 C-7.87566406 1.04869141 -7.87566406 1.04869141 -6.625 1.0625 C-5.40683594 1.07990234 -5.40683594 1.07990234 -4.1640625 1.09765625 C-1.95062858 1.14466334 -1.95062858 1.14466334 0 0 Z " fill="#C49845" transform="translate(206,217)"/>
<path d="M0 0 C1.80411967 2.75924185 2.0127245 3.88972103 1.625 7.25 C1.41875 8.1575 1.2125 9.065 1 10 C0.01 10 -0.98 10 -2 10 C-2.25 3.375 -2.25 3.375 0 0 Z " fill="#F4F079" transform="translate(141,185)"/>
<path d="M0 0 C1 2 1 2 0.3125 4.375 C-1.09398311 7.18796623 -2.67557877 8.9080209 -5 11 C-5.99 10.67 -6.98 10.34 -8 10 C-5.36 6.7 -2.72 3.4 0 0 Z " fill="#C59F4F" transform="translate(200,119)"/>
<path d="M0 0 C1.65 0 3.3 0 5 0 C4.67 1.98 4.34 3.96 4 6 C2.68 6 1.36 6 0 6 C0 4.02 0 2.04 0 0 Z " fill="#26255E" transform="translate(156,289)"/>
<path d="M0 0 C0.99 0 1.98 0 3 0 C3.64995297 1.41478135 4.29478722 2.83191487 4.9375 4.25 C5.47697266 5.43335938 5.47697266 5.43335938 6.02734375 6.640625 C6.90033279 8.75823698 7.51338508 10.76669362 8 13 C7.01 12.67 6.02 12.34 5 12 C5 10.68 5 9.36 5 8 C4.34 8 3.68 8 3 8 C3 6.68 3 5.36 3 4 C2.34 4 1.68 4 1 4 C0.67 2.68 0.34 1.36 0 0 Z " fill="#CCC381" transform="translate(134,58)"/>
<path d="M0 0 C1.32 0 2.64 0 4 0 C4 4.29 4 8.58 4 13 C3.34 13 2.68 13 2 13 C2.33 9.7 2.66 6.4 3 3 C2.01 3.33 1.02 3.66 0 4 C0 2.68 0 1.36 0 0 Z " fill="#1B1A4B" transform="translate(125,289)"/>
<path d="M0 0 C1.65 0 3.3 0 5 0 C4.67 1.98 4.34 3.96 4 6 C2.68 6 1.36 6 0 6 C0 4.02 0 2.04 0 0 Z " fill="#1F1D3B" transform="translate(89,289)"/>
<path d="M0 0 C1.65 0 3.3 0 5 0 C4.43628586 3.26954202 3.50037734 4.82575883 1 7 C0.34 6.67 -0.32 6.34 -1 6 C-0.67 4.02 -0.34 2.04 0 0 Z " fill="#524F68" transform="translate(146,287)"/>
<path d="M0 0 C0.66 0 1.32 0 2 0 C1.88570603 1.77155654 1.75816963 3.54226229 1.625 5.3125 C1.52058594 6.79169922 1.52058594 6.79169922 1.4140625 8.30078125 C1 11 1 11 -1 14 C-0.979375 13.113125 -0.95875 12.22625 -0.9375 11.3125 C-0.99286219 8.37830369 -1.3305734 5.84506304 -2 3 C-1.34 3 -0.68 3 0 3 C0 2.01 0 1.02 0 0 Z " fill="#D59F31" transform="translate(118,164)"/>
<path d="M0 0 C2.625 0.375 2.625 0.375 5 1 C5.33 1.99 5.66 2.98 6 4 C5.01 4.66 4.02 5.32 3 6 C2.34 5.67 1.68 5.34 1 5 C1 4.34 1 3.68 1 3 C0.01 2.67 -0.98 2.34 -2 2 C-1.34 1.34 -0.68 0.68 0 0 Z " fill="#F3F5A0" transform="translate(148,99)"/>
<path d="M0 0 C0.33 0.66 0.66 1.32 1 2 C1.66 2 2.32 2 3 2 C3.33 3.98 3.66 5.96 4 8 C3.401875 7.690625 2.80375 7.38125 2.1875 7.0625 C-0.08956772 5.89790296 -0.08956772 5.89790296 -3 5 C-3 4.34 -3 3.68 -3 3 C-2.01 3 -1.02 3 0 3 C0 2.01 0 1.02 0 0 Z " fill="#D9DD9C" transform="translate(149,196)"/>
<path d="M0 0 C4.16138263 -0.08159574 7.9472484 0.01751476 12 1 C12 1.33 12 1.66 12 2 C9.03 2 6.06 2 3 2 C3 2.66 3 3.32 3 4 C1 3 1 3 0 0 Z " fill="#AE761E" transform="translate(248,220)"/>
<path d="M0 0 C1.65 0 3.3 0 5 0 C5 0.99 5 1.98 5 3 C4.34 3 3.68 3 3 3 C3 3.66 3 4.32 3 5 C2.01 5 1.02 5 0 5 C0 3.35 0 1.7 0 0 Z " fill="#272590" transform="translate(251,289)"/>
<path d="M0 0 C0.99 1.32 1.98 2.64 3 4 C1.68 3.67 0.36 3.34 -1 3 C-0.67 4.65 -0.34 6.3 0 8 C-0.99 8.495 -0.99 8.495 -2 9 C-2.625 6.6875 -2.625 6.6875 -3 4 C-1 1 -1 1 0 0 Z " fill="#BF8424" transform="translate(105,147)"/>
<path d="M0 0 C0.66 0 1.32 0 2 0 C2.33 0.66 2.66 1.32 3 2 C5.52733235 2.65555119 5.52733235 2.65555119 8 3 C8.33 2.01 8.66 1.02 9 0 C9.33 0.99 9.66 1.98 10 3 C9 4 9 4 6.93359375 4.09765625 C6.10988281 4.08605469 5.28617187 4.07445312 4.4375 4.0625 C3.61121094 4.05347656 2.78492187 4.04445313 1.93359375 4.03515625 C1.29550781 4.02355469 0.65742187 4.01195312 0 4 C0 2.68 0 1.36 0 0 Z " fill="#B2AF85" transform="translate(112,299)"/>
<path d="M0 0 C1.98 0 3.96 0 6 0 C4.35 1.65 2.7 3.3 1 5 C0.34 4.67 -0.32 4.34 -1 4 C-0.67 2.68 -0.34 1.36 0 0 Z " fill="#D69B2D" transform="translate(207,124)"/>
<path d="M0 0 C0.66666667 2.66666667 1.33333333 5.33333333 2 8 C0.68 8.33 -0.64 8.66 -2 9 C-2.6875 6.75 -2.6875 6.75 -3 4 C-1.5625 1.6875 -1.5625 1.6875 0 0 Z " fill="#CA983B" transform="translate(204,113)"/>
<path d="M0 0 C0.66 0.33 1.32 0.66 2 1 C2.33 0.67 2.66 0.34 3 0 C3.66 0.33 4.32 0.66 5 1 C3 4 3 4 -0.125 4.6875 C-1.07375 4.790625 -2.0225 4.89375 -3 5 C-2.01 3.35 -1.02 1.7 0 0 Z " fill="#C17A03" transform="translate(248,222)"/>
<path d="M0 0 C2.97 0.99 5.94 1.98 9 3 C9 3.66 9 4.32 9 5 C7.68428397 4.7452486 6.37239624 4.47065859 5.0625 4.1875 C4.33160156 4.03667969 3.60070312 3.88585937 2.84765625 3.73046875 C2.23792969 3.48941406 1.62820312 3.24835938 1 3 C0.67 2.01 0.34 1.02 0 0 Z " fill="#CA9C33" transform="translate(203,209)"/>
<path d="M0 0 C0.99 0.33 1.98 0.66 3 1 C1.25 5.875 1.25 5.875 -1 7 C-1.04254356 5.00045254 -1.04080783 2.99958364 -1 1 C-0.67 0.67 -0.34 0.34 0 0 Z " fill="#171652" transform="translate(143,288)"/>
<path d="M0 0 C2.64 0 5.28 0 8 0 C8 1.65 8 3.3 8 5 C7.34 5 6.68 5 6 5 C5.67 4.01 5.34 3.02 5 2 C3.35 2 1.7 2 0 2 C0 1.34 0 0.68 0 0 Z " fill="#AAA682" transform="translate(114,288)"/>
<path d="M0 0 C0.99 0.33 1.98 0.66 3 1 C3.33 3.97 3.66 6.94 4 10 C3.34 9.34 2.68 8.68 2 8 C2 6.68 2 5.36 2 4 C1.34 4 0.68 4 0 4 C0 2.68 0 1.36 0 0 Z " fill="#E4A10F" transform="translate(206,212)"/>
<path d="M0 0 C0.66 0.66 1.32 1.32 2 2 C1.67 2.99 1.34 3.98 1 5 C-0.98 5 -2.96 5 -5 5 C-5.33 4.34 -5.66 3.68 -6 3 C-4.35 3 -2.7 3 -1 3 C-0.67 2.01 -0.34 1.02 0 0 Z " fill="#CECF90" transform="translate(168,109)"/>
<path d="M0 0 C1.32 0 2.64 0 4 0 C4.66 1.98 5.32 3.96 6 6 C5.01 6.495 5.01 6.495 4 7 C4 6.01 4 5.02 4 4 C3.34 4 2.68 4 2 4 C2 3.01 2 2.02 2 1 C1.34 0.67 0.68 0.34 0 0 Z " fill="#D7D39C" transform="translate(207,288)"/>
</svg>
